<svg width="1104" height="56" viewBox="0 0 1104 56" fill="none" xmlns="http://www.w3.org/2000/svg">
<g filter="url(#filter0_i_304_3191)">
<rect width="1104" height="56" fill="white"/>
<path d="M17.4091 34V22.3636H21.3409C22.2538 22.3636 23 22.5284 23.5795 22.858C24.1629 23.1837 24.5947 23.625 24.875 24.1818C25.1553 24.7386 25.2955 25.3598 25.2955 26.0455C25.2955 26.7311 25.1553 27.3542 24.875 27.9148C24.5985 28.4754 24.1705 28.9223 23.5909 29.2557C23.0114 29.5852 22.2689 29.75 21.3636 29.75H18.5455V28.5H21.3182C21.9432 28.5 22.4451 28.392 22.8239 28.1761C23.2027 27.9602 23.4773 27.6686 23.6477 27.3011C23.822 26.9299 23.9091 26.5114 23.9091 26.0455C23.9091 25.5795 23.822 25.1629 23.6477 24.7955C23.4773 24.428 23.2008 24.1402 22.8182 23.9318C22.4356 23.7197 21.928 23.6136 21.2955 23.6136H18.8182V34H17.4091ZM27.3835 34V25.2727H28.679V26.5909H28.7699C28.929 26.1591 29.2169 25.8087 29.6335 25.5398C30.0502 25.2708 30.5199 25.1364 31.0426 25.1364C31.1411 25.1364 31.2642 25.1383 31.4119 25.142C31.5597 25.1458 31.6714 25.1515 31.7472 25.1591V26.5227C31.7017 26.5114 31.5975 26.4943 31.4347 26.4716C31.2756 26.4451 31.107 26.4318 30.929 26.4318C30.5047 26.4318 30.1259 26.5208 29.7926 26.6989C29.4631 26.8731 29.2017 27.1155 29.0085 27.4261C28.8191 27.733 28.7244 28.0833 28.7244 28.4773V34H27.3835ZM36.6165 34.1818C35.8286 34.1818 35.1373 33.9943 34.5426 33.6193C33.9517 33.2443 33.4896 32.7197 33.1562 32.0455C32.8267 31.3712 32.6619 30.5833 32.6619 29.6818C32.6619 28.7727 32.8267 27.9792 33.1562 27.3011C33.4896 26.6231 33.9517 26.0966 34.5426 25.7216C35.1373 25.3466 35.8286 25.1591 36.6165 25.1591C37.4044 25.1591 38.0938 25.3466 38.6847 25.7216C39.2794 26.0966 39.7415 26.6231 40.071 27.3011C40.4044 27.9792 40.571 28.7727 40.571 29.6818C40.571 30.5833 40.4044 31.3712 40.071 32.0455C39.7415 32.7197 39.2794 33.2443 38.6847 33.6193C38.0938 33.9943 37.4044 34.1818 36.6165 34.1818ZM36.6165 32.9773C37.215 32.9773 37.7074 32.8239 38.0938 32.517C38.4801 32.2102 38.7661 31.8068 38.9517 31.3068C39.1373 30.8068 39.2301 30.2652 39.2301 29.6818C39.2301 29.0985 39.1373 28.5549 38.9517 28.0511C38.7661 27.5473 38.4801 27.1402 38.0938 26.8295C37.7074 26.5189 37.215 26.3636 36.6165 26.3636C36.018 26.3636 35.5256 26.5189 35.1392 26.8295C34.7528 27.1402 34.4669 27.5473 34.2812 28.0511C34.0956 28.5549 34.0028 29.0985 34.0028 29.6818C34.0028 30.2652 34.0956 30.8068 34.2812 31.3068C34.4669 31.8068 34.7528 32.2102 35.1392 32.517C35.5256 32.8239 36.018 32.9773 36.6165 32.9773ZM45.9134 34.1818C45.1861 34.1818 44.544 33.9981 43.9872 33.6307C43.4304 33.2595 42.9948 32.7367 42.6804 32.0625C42.366 31.3845 42.2088 30.5833 42.2088 29.6591C42.2088 28.7424 42.366 27.947 42.6804 27.2727C42.9948 26.5985 43.4323 26.0777 43.9929 25.7102C44.5535 25.3428 45.2012 25.1591 45.9361 25.1591C46.5043 25.1591 46.9531 25.2538 47.2827 25.4432C47.616 25.6288 47.8698 25.8409 48.044 26.0795C48.2221 26.3144 48.3603 26.5076 48.4588 26.6591H48.5724V22.3636H49.9134V34H48.6179V32.6591H48.4588C48.3603 32.8182 48.2202 33.0189 48.0384 33.2614C47.8565 33.5 47.5971 33.714 47.2599 33.9034C46.9228 34.089 46.474 34.1818 45.9134 34.1818ZM46.0952 32.9773C46.633 32.9773 47.0876 32.8371 47.4588 32.5568C47.83 32.2727 48.1122 31.8807 48.3054 31.3807C48.4986 30.8769 48.5952 30.2955 48.5952 29.6364C48.5952 28.9848 48.5005 28.4148 48.3111 27.9261C48.1217 27.4337 47.8414 27.0511 47.4702 26.7784C47.099 26.5019 46.6406 26.3636 46.0952 26.3636C45.527 26.3636 45.0535 26.5095 44.6747 26.8011C44.2997 27.089 44.0175 27.4811 43.8281 27.9773C43.6425 28.4697 43.5497 29.0227 43.5497 29.6364C43.5497 30.2576 43.6444 30.822 43.8338 31.3295C44.027 31.8333 44.3111 32.2348 44.6861 32.5341C45.0649 32.8295 45.5346 32.9773 46.0952 32.9773ZM58.0554 30.4318V25.2727H59.3963V34H58.0554V32.5227H57.9645C57.7599 32.9659 57.4418 33.3428 57.0099 33.6534C56.5781 33.9602 56.0327 34.1136 55.3736 34.1136C54.8281 34.1136 54.3433 33.9943 53.919 33.7557C53.4948 33.5133 53.1615 33.1496 52.919 32.6648C52.6766 32.1761 52.5554 31.5606 52.5554 30.8182V25.2727H53.8963V30.7273C53.8963 31.3636 54.0743 31.8712 54.4304 32.25C54.7902 32.6288 55.2486 32.8182 55.8054 32.8182C56.1387 32.8182 56.4777 32.733 56.8224 32.5625C57.1709 32.392 57.4626 32.1307 57.6974 31.7784C57.9361 31.4261 58.0554 30.9773 58.0554 30.4318ZM65.3977 34.1818C64.5795 34.1818 63.875 33.9886 63.2841 33.6023C62.6932 33.2159 62.2386 32.6837 61.9205 32.0057C61.6023 31.3277 61.4432 30.553 61.4432 29.6818C61.4432 28.7955 61.6061 28.0133 61.9318 27.3352C62.2614 26.6534 62.7197 26.1212 63.3068 25.7386C63.8977 25.3523 64.5871 25.1591 65.375 25.1591C65.9886 25.1591 66.5417 25.2727 67.0341 25.5C67.5265 25.7273 67.9299 26.0455 68.2443 26.4545C68.5587 26.8636 68.7538 27.3409 68.8295 27.8864H67.4886C67.3864 27.4886 67.1591 27.1364 66.8068 26.8295C66.4583 26.5189 65.9886 26.3636 65.3977 26.3636C64.875 26.3636 64.4167 26.5 64.0227 26.7727C63.6326 27.0417 63.3277 27.4223 63.108 27.9148C62.892 28.4034 62.7841 28.9773 62.7841 29.6364C62.7841 30.3106 62.8902 30.8977 63.1023 31.3977C63.3182 31.8977 63.6212 32.286 64.0114 32.5625C64.4053 32.839 64.8674 32.9773 65.3977 32.9773C65.7462 32.9773 66.0625 32.9167 66.3466 32.7955C66.6307 32.6742 66.8712 32.5 67.0682 32.2727C67.2652 32.0455 67.4053 31.7727 67.4886 31.4545H68.8295C68.7538 31.9697 68.5663 32.4337 68.267 32.8466C67.9716 33.2557 67.5795 33.5814 67.0909 33.8239C66.6061 34.0625 66.0417 34.1818 65.3977 34.1818ZM74.5852 25.2727V26.4091H70.0625V25.2727H74.5852ZM71.3807 23.1818H72.7216V31.5C72.7216 31.8788 72.7765 32.1629 72.8864 32.3523C73 32.5379 73.1439 32.6629 73.3182 32.7273C73.4962 32.7879 73.6837 32.8182 73.8807 32.8182C74.0284 32.8182 74.1496 32.8106 74.2443 32.7955C74.339 32.7765 74.4148 32.7614 74.4716 32.75L74.7443 33.9545C74.6534 33.9886 74.5265 34.0227 74.3636 34.0568C74.2008 34.0947 73.9943 34.1136 73.7443 34.1136C73.3655 34.1136 72.9943 34.0322 72.6307 33.8693C72.2708 33.7064 71.9716 33.4583 71.733 33.125C71.4981 32.7917 71.3807 32.3712 71.3807 31.8636V23.1818ZM84.875 34H81.2841V22.3636H85.0341C86.1629 22.3636 87.1288 22.5966 87.9318 23.0625C88.7348 23.5246 89.3504 24.1894 89.7784 25.0568C90.2064 25.9205 90.4205 26.9545 90.4205 28.1591C90.4205 29.3712 90.2045 30.4148 89.7727 31.2898C89.3409 32.161 88.7121 32.8314 87.8864 33.3011C87.0606 33.767 86.0568 34 84.875 34ZM82.6932 32.75H84.7841C85.7462 32.75 86.5436 32.5644 87.1761 32.1932C87.8087 31.822 88.2803 31.2936 88.5909 30.608C88.9015 29.9223 89.0568 29.1061 89.0568 28.1591C89.0568 27.2197 88.9034 26.411 88.5966 25.733C88.2898 25.0511 87.8314 24.5284 87.2216 24.1648C86.6117 23.7973 85.8523 23.6136 84.9432 23.6136H82.6932V32.75ZM96.2614 34.1818C95.4205 34.1818 94.6951 33.9962 94.0852 33.625C93.4792 33.25 93.0114 32.7273 92.6818 32.0568C92.3561 31.3826 92.1932 30.5985 92.1932 29.7045C92.1932 28.8106 92.3561 28.0227 92.6818 27.3409C93.0114 26.6553 93.4697 26.1212 94.0568 25.7386C94.6477 25.3523 95.3371 25.1591 96.125 25.1591C96.5795 25.1591 97.0284 25.2348 97.4716 25.3864C97.9148 25.5379 98.3182 25.7841 98.6818 26.125C99.0455 26.4621 99.3352 26.9091 99.5511 27.4659C99.767 28.0227 99.875 28.7083 99.875 29.5227V30.0909H93.1477V28.9318H98.5114C98.5114 28.4394 98.4129 28 98.2159 27.6136C98.0227 27.2273 97.7462 26.9223 97.3864 26.6989C97.0303 26.4754 96.6098 26.3636 96.125 26.3636C95.5909 26.3636 95.1288 26.4962 94.7386 26.7614C94.3523 27.0227 94.0549 27.3636 93.8466 27.7841C93.6383 28.2045 93.5341 28.6553 93.5341 29.1364V29.9091C93.5341 30.5682 93.6477 31.1269 93.875 31.5852C94.1061 32.0398 94.4261 32.3864 94.8352 32.625C95.2443 32.8598 95.7197 32.9773 96.2614 32.9773C96.6136 32.9773 96.9318 32.928 97.2159 32.8295C97.5038 32.7273 97.7519 32.5758 97.9602 32.375C98.1686 32.1705 98.3295 31.9167 98.4432 31.6136L99.7386 31.9773C99.6023 32.4167 99.3731 32.803 99.0511 33.1364C98.7292 33.4659 98.3314 33.7235 97.858 33.9091C97.3845 34.0909 96.8523 34.1818 96.2614 34.1818ZM105.71 25.2727V26.4091H101.188V25.2727H105.71ZM102.506 23.1818H103.847V31.5C103.847 31.8788 103.902 32.1629 104.011 32.3523C104.125 32.5379 104.269 32.6629 104.443 32.7273C104.621 32.7879 104.809 32.8182 105.006 32.8182C105.153 32.8182 105.275 32.8106 105.369 32.7955C105.464 32.7765 105.54 32.7614 105.597 32.75L105.869 33.9545C105.778 33.9886 105.652 34.0227 105.489 34.0568C105.326 34.0947 105.119 34.1136 104.869 34.1136C104.491 34.1136 104.119 34.0322 103.756 33.8693C103.396 33.7064 103.097 33.4583 102.858 33.125C102.623 32.7917 102.506 32.3712 102.506 31.8636V23.1818ZM110.295 34.2045C109.742 34.2045 109.241 34.1004 108.79 33.892C108.339 33.6799 107.981 33.375 107.716 32.9773C107.451 32.5758 107.318 32.0909 107.318 31.5227C107.318 31.0227 107.417 30.6174 107.614 30.3068C107.811 29.9924 108.074 29.7462 108.403 29.5682C108.733 29.3902 109.097 29.2576 109.494 29.1705C109.896 29.0795 110.299 29.0076 110.705 28.9545C111.235 28.8864 111.665 28.8352 111.994 28.8011C112.328 28.7633 112.57 28.7008 112.722 28.6136C112.877 28.5265 112.955 28.375 112.955 28.1591V28.1136C112.955 27.553 112.801 27.1174 112.494 26.8068C112.191 26.4962 111.731 26.3409 111.114 26.3409C110.473 26.3409 109.972 26.4811 109.608 26.7614C109.244 27.0417 108.989 27.3409 108.841 27.6591L107.568 27.2045C107.795 26.6742 108.098 26.2614 108.477 25.9659C108.86 25.6667 109.277 25.4583 109.727 25.3409C110.182 25.2197 110.629 25.1591 111.068 25.1591C111.348 25.1591 111.67 25.1932 112.034 25.2614C112.402 25.3258 112.756 25.4602 113.097 25.6648C113.441 25.8693 113.727 26.178 113.955 26.5909C114.182 27.0038 114.295 27.5568 114.295 28.25V34H112.955V32.8182H112.886C112.795 33.0076 112.644 33.2102 112.432 33.4261C112.22 33.642 111.938 33.8258 111.585 33.9773C111.233 34.1288 110.803 34.2045 110.295 34.2045ZM110.5 33C111.03 33 111.477 32.8958 111.841 32.6875C112.208 32.4792 112.485 32.2102 112.67 31.8807C112.86 31.5511 112.955 31.2045 112.955 30.8409V29.6136C112.898 29.6818 112.773 29.7443 112.58 29.8011C112.39 29.8542 112.17 29.9015 111.92 29.9432C111.674 29.9811 111.434 30.0152 111.199 30.0455C110.968 30.072 110.78 30.0947 110.636 30.1136C110.288 30.1591 109.962 30.233 109.659 30.3352C109.36 30.4337 109.117 30.5833 108.932 30.7841C108.75 30.9811 108.659 31.25 108.659 31.5909C108.659 32.0568 108.831 32.4091 109.176 32.6477C109.525 32.8826 109.966 33 110.5 33ZM116.743 34V25.2727H118.084V34H116.743ZM117.425 23.8182C117.163 23.8182 116.938 23.7292 116.749 23.5511C116.563 23.3731 116.47 23.1591 116.47 22.9091C116.47 22.6591 116.563 22.4451 116.749 22.267C116.938 22.089 117.163 22 117.425 22C117.686 22 117.91 22.089 118.095 22.267C118.285 22.4451 118.379 22.6591 118.379 22.9091C118.379 23.1591 118.285 23.3731 118.095 23.5511C117.91 23.7292 117.686 23.8182 117.425 23.8182ZM121.881 22.3636V34H120.54V22.3636H121.881ZM130.518 27.2273L129.314 27.5682C129.238 27.3674 129.126 27.1723 128.979 26.983C128.835 26.7898 128.638 26.6307 128.388 26.5057C128.138 26.3807 127.818 26.3182 127.428 26.3182C126.893 26.3182 126.448 26.4413 126.092 26.6875C125.74 26.9299 125.564 27.2386 125.564 27.6136C125.564 27.947 125.685 28.2102 125.928 28.4034C126.17 28.5966 126.549 28.7576 127.064 28.8864L128.359 29.2045C129.14 29.3939 129.721 29.6837 130.104 30.0739C130.486 30.4602 130.678 30.9583 130.678 31.5682C130.678 32.0682 130.534 32.5152 130.246 32.9091C129.962 33.303 129.564 33.6136 129.053 33.8409C128.541 34.0682 127.946 34.1818 127.268 34.1818C126.378 34.1818 125.642 33.9886 125.058 33.6023C124.475 33.2159 124.106 32.6515 123.95 31.9091L125.223 31.5909C125.344 32.0606 125.573 32.4129 125.911 32.6477C126.251 32.8826 126.696 33 127.246 33C127.871 33 128.367 32.8674 128.734 32.6023C129.106 32.3333 129.291 32.0114 129.291 31.6364C129.291 31.3333 129.185 31.0795 128.973 30.875C128.761 30.6667 128.435 30.5114 127.996 30.4091L126.541 30.0682C125.742 29.8788 125.155 29.5852 124.78 29.1875C124.409 28.786 124.223 28.2841 124.223 27.6818C124.223 27.1894 124.361 26.7538 124.638 26.375C124.918 25.9962 125.299 25.6989 125.78 25.483C126.265 25.267 126.814 25.1591 127.428 25.1591C128.291 25.1591 128.969 25.3485 129.462 25.7273C129.958 26.1061 130.31 26.6061 130.518 27.2273Z" fill="#03162C"/>
<path d="M173.409 34V22.3636H177.341C178.25 22.3636 178.996 22.5189 179.58 22.8295C180.163 23.1364 180.595 23.5587 180.875 24.0966C181.155 24.6345 181.295 25.2462 181.295 25.9318C181.295 26.6174 181.155 27.2254 180.875 27.7557C180.595 28.286 180.165 28.7027 179.585 29.0057C179.006 29.3049 178.265 29.4545 177.364 29.4545H174.182V28.1818H177.318C177.939 28.1818 178.439 28.0909 178.818 27.9091C179.201 27.7273 179.477 27.4697 179.648 27.1364C179.822 26.7992 179.909 26.3977 179.909 25.9318C179.909 25.4659 179.822 25.0587 179.648 24.7102C179.473 24.3617 179.195 24.0928 178.812 23.9034C178.43 23.7102 177.924 23.6136 177.295 23.6136H174.818V34H173.409ZM178.886 28.7727L181.75 34H180.114L177.295 28.7727H178.886ZM187.027 34.1818C186.186 34.1818 185.461 33.9962 184.851 33.625C184.245 33.25 183.777 32.7273 183.447 32.0568C183.122 31.3826 182.959 30.5985 182.959 29.7045C182.959 28.8106 183.122 28.0227 183.447 27.3409C183.777 26.6553 184.235 26.1212 184.822 25.7386C185.413 25.3523 186.103 25.1591 186.891 25.1591C187.345 25.1591 187.794 25.2348 188.237 25.3864C188.68 25.5379 189.084 25.7841 189.447 26.125C189.811 26.4621 190.101 26.9091 190.317 27.4659C190.533 28.0227 190.641 28.7083 190.641 29.5227V30.0909H183.913V28.9318H189.277C189.277 28.4394 189.179 28 188.982 27.6136C188.788 27.2273 188.512 26.9223 188.152 26.6989C187.796 26.4754 187.375 26.3636 186.891 26.3636C186.357 26.3636 185.894 26.4962 185.504 26.7614C185.118 27.0227 184.821 27.3636 184.612 27.7841C184.404 28.2045 184.3 28.6553 184.3 29.1364V29.9091C184.3 30.5682 184.413 31.1269 184.641 31.5852C184.872 32.0398 185.192 32.3864 185.601 32.625C186.01 32.8598 186.485 32.9773 187.027 32.9773C187.379 32.9773 187.697 32.928 187.982 32.8295C188.269 32.7273 188.518 32.5758 188.726 32.375C188.934 32.1705 189.095 31.9167 189.209 31.6136L190.504 31.9773C190.368 32.4167 190.139 32.803 189.817 33.1364C189.495 33.4659 189.097 33.7235 188.624 33.9091C188.15 34.0909 187.618 34.1818 187.027 34.1818ZM199.551 25.2727L196.324 34H194.96L191.733 25.2727H193.188L195.597 32.2273H195.688L198.097 25.2727H199.551ZM201.321 34V25.2727H202.662V34H201.321ZM202.003 23.8182C201.741 23.8182 201.516 23.7292 201.327 23.5511C201.141 23.3731 201.048 23.1591 201.048 22.9091C201.048 22.6591 201.141 22.4451 201.327 22.267C201.516 22.089 201.741 22 202.003 22C202.264 22 202.488 22.089 202.673 22.267C202.863 22.4451 202.957 22.6591 202.957 22.9091C202.957 23.1591 202.863 23.3731 202.673 23.5511C202.488 23.7292 202.264 23.8182 202.003 23.8182ZM208.777 34.1818C207.936 34.1818 207.211 33.9962 206.601 33.625C205.995 33.25 205.527 32.7273 205.197 32.0568C204.872 31.3826 204.709 30.5985 204.709 29.7045C204.709 28.8106 204.872 28.0227 205.197 27.3409C205.527 26.6553 205.985 26.1212 206.572 25.7386C207.163 25.3523 207.853 25.1591 208.641 25.1591C209.095 25.1591 209.544 25.2348 209.987 25.3864C210.43 25.5379 210.834 25.7841 211.197 26.125C211.561 26.4621 211.851 26.9091 212.067 27.4659C212.283 28.0227 212.391 28.7083 212.391 29.5227V30.0909H205.663V28.9318H211.027C211.027 28.4394 210.929 28 210.732 27.6136C210.538 27.2273 210.262 26.9223 209.902 26.6989C209.546 26.4754 209.125 26.3636 208.641 26.3636C208.107 26.3636 207.644 26.4962 207.254 26.7614C206.868 27.0227 206.571 27.3636 206.362 27.7841C206.154 28.2045 206.05 28.6553 206.05 29.1364V29.9091C206.05 30.5682 206.163 31.1269 206.391 31.5852C206.622 32.0398 206.942 32.3864 207.351 32.625C207.76 32.8598 208.235 32.9773 208.777 32.9773C209.129 32.9773 209.447 32.928 209.732 32.8295C210.019 32.7273 210.268 32.5758 210.476 32.375C210.684 32.1705 210.845 31.9167 210.959 31.6136L212.254 31.9773C212.118 32.4167 211.889 32.803 211.567 33.1364C211.245 33.4659 210.847 33.7235 210.374 33.9091C209.9 34.0909 209.368 34.1818 208.777 34.1818ZM216.408 34L213.749 25.2727H215.158L217.044 31.9545H217.135L218.999 25.2727H220.43L222.271 31.9318H222.362L224.249 25.2727H225.658L222.999 34H221.68L219.771 27.2955H219.635L217.726 34H216.408ZM233.612 27.2273L232.408 27.5682C232.332 27.3674 232.22 27.1723 232.072 26.983C231.929 26.7898 231.732 26.6307 231.482 26.5057C231.232 26.3807 230.911 26.3182 230.521 26.3182C229.987 26.3182 229.542 26.4413 229.186 26.6875C228.834 26.9299 228.658 27.2386 228.658 27.6136C228.658 27.947 228.779 28.2102 229.021 28.4034C229.264 28.5966 229.643 28.7576 230.158 28.8864L231.453 29.2045C232.233 29.3939 232.815 29.6837 233.197 30.0739C233.58 30.4602 233.771 30.9583 233.771 31.5682C233.771 32.0682 233.627 32.5152 233.339 32.9091C233.055 33.303 232.658 33.6136 232.146 33.8409C231.635 34.0682 231.04 34.1818 230.362 34.1818C229.472 34.1818 228.735 33.9886 228.152 33.6023C227.569 33.2159 227.199 32.6515 227.044 31.9091L228.317 31.5909C228.438 32.0606 228.667 32.4129 229.004 32.6477C229.345 32.8826 229.79 33 230.339 33C230.964 33 231.461 32.8674 231.828 32.6023C232.199 32.3333 232.385 32.0114 232.385 31.6364C232.385 31.3333 232.279 31.0795 232.067 30.875C231.855 30.6667 231.529 30.5114 231.089 30.4091L229.635 30.0682C228.836 29.8788 228.249 29.5852 227.874 29.1875C227.502 28.786 227.317 28.2841 227.317 27.6818C227.317 27.1894 227.455 26.7538 227.732 26.375C228.012 25.9962 228.393 25.6989 228.874 25.483C229.358 25.267 229.908 25.1591 230.521 25.1591C231.385 25.1591 232.063 25.3485 232.555 25.7273C233.052 26.1061 233.404 26.6061 233.612 27.2273Z" fill="#03162C"/>
<g filter="url(#filter1_i_304_3191)">
<rect width="184" height="56" transform="translate(259)" fill="white"/>
<path d="M281.938 30.0234C281.938 29.8203 281.906 29.638 281.844 29.4766C281.786 29.3099 281.677 29.1589 281.516 29.0234C281.354 28.8828 281.128 28.7448 280.836 28.6094C280.544 28.474 280.167 28.3333 279.703 28.1875C279.188 28.0208 278.698 27.8333 278.234 27.625C277.776 27.4167 277.37 27.1745 277.016 26.8984C276.667 26.6172 276.391 26.2917 276.188 25.9219C275.99 25.5521 275.891 25.1224 275.891 24.6328C275.891 24.1589 275.995 23.7292 276.203 23.3438C276.411 22.9531 276.703 22.6198 277.078 22.3438C277.453 22.0625 277.896 21.8464 278.406 21.6953C278.922 21.5443 279.487 21.4688 280.102 21.4688C280.94 21.4688 281.672 21.6198 282.297 21.9219C282.922 22.224 283.406 22.638 283.75 23.1641C284.099 23.6901 284.273 24.2917 284.273 24.9688H281.945C281.945 24.6354 281.875 24.3438 281.734 24.0938C281.599 23.8385 281.391 23.638 281.109 23.4922C280.833 23.3464 280.484 23.2734 280.062 23.2734C279.656 23.2734 279.318 23.3359 279.047 23.4609C278.776 23.5807 278.573 23.7448 278.438 23.9531C278.302 24.1562 278.234 24.3854 278.234 24.6406C278.234 24.8333 278.281 25.0078 278.375 25.1641C278.474 25.3203 278.62 25.4661 278.812 25.6016C279.005 25.737 279.242 25.8646 279.523 25.9844C279.805 26.1042 280.13 26.2214 280.5 26.3359C281.12 26.5234 281.664 26.7344 282.133 26.9688C282.607 27.2031 283.003 27.4661 283.32 27.7578C283.638 28.0495 283.878 28.3802 284.039 28.75C284.201 29.1198 284.281 29.5391 284.281 30.0078C284.281 30.5026 284.185 30.9453 283.992 31.3359C283.799 31.7266 283.521 32.0573 283.156 32.3281C282.792 32.599 282.357 32.8047 281.852 32.9453C281.346 33.0859 280.781 33.1562 280.156 33.1562C279.594 33.1562 279.039 33.0833 278.492 32.9375C277.945 32.7865 277.448 32.5599 277 32.2578C276.557 31.9557 276.203 31.5703 275.938 31.1016C275.672 30.6328 275.539 30.0781 275.539 29.4375H277.891C277.891 29.7917 277.945 30.0911 278.055 30.3359C278.164 30.5807 278.318 30.7786 278.516 30.9297C278.719 31.0807 278.958 31.1901 279.234 31.2578C279.516 31.3255 279.823 31.3594 280.156 31.3594C280.562 31.3594 280.896 31.3021 281.156 31.1875C281.422 31.0729 281.617 30.9141 281.742 30.7109C281.872 30.5078 281.938 30.2786 281.938 30.0234ZM287.93 21V33H285.68V21H287.93ZM287.609 28.4766H286.992C286.997 27.888 287.076 27.3464 287.227 26.8516C287.378 26.3516 287.594 25.9193 287.875 25.5547C288.156 25.1849 288.492 24.8984 288.883 24.6953C289.279 24.4922 289.716 24.3906 290.195 24.3906C290.612 24.3906 290.99 24.4505 291.328 24.5703C291.672 24.6849 291.966 24.8724 292.211 25.1328C292.461 25.388 292.654 25.724 292.789 26.1406C292.924 26.5573 292.992 27.0625 292.992 27.6562V33H290.727V27.6406C290.727 27.2656 290.672 26.9714 290.562 26.7578C290.458 26.5391 290.305 26.3854 290.102 26.2969C289.904 26.2031 289.659 26.1562 289.367 26.1562C289.044 26.1562 288.768 26.2161 288.539 26.3359C288.315 26.4557 288.135 26.6224 288 26.8359C287.865 27.0443 287.766 27.2891 287.703 27.5703C287.641 27.8516 287.609 28.1536 287.609 28.4766ZM297.078 24.5469V33H294.82V24.5469H297.078ZM294.68 22.3438C294.68 22.0156 294.794 21.7448 295.023 21.5312C295.253 21.3177 295.56 21.2109 295.945 21.2109C296.326 21.2109 296.63 21.3177 296.859 21.5312C297.094 21.7448 297.211 22.0156 297.211 22.3438C297.211 22.6719 297.094 22.9427 296.859 23.1562C296.63 23.3698 296.326 23.4766 295.945 23.4766C295.56 23.4766 295.253 23.3698 295.023 23.1562C294.794 22.9427 294.68 22.6719 294.68 22.3438ZM301.188 26.1719V36.25H298.938V24.5469H301.023L301.188 26.1719ZM306.539 28.6797V28.8438C306.539 29.4583 306.466 30.0286 306.32 30.5547C306.18 31.0807 305.971 31.5391 305.695 31.9297C305.419 32.3151 305.076 32.6172 304.664 32.8359C304.258 33.0495 303.789 33.1562 303.258 33.1562C302.742 33.1562 302.294 33.0521 301.914 32.8438C301.534 32.6354 301.214 32.3438 300.953 31.9688C300.698 31.5885 300.492 31.1484 300.336 30.6484C300.18 30.1484 300.06 29.612 299.977 29.0391V28.6094C300.06 27.9948 300.18 27.4323 300.336 26.9219C300.492 26.4062 300.698 25.9609 300.953 25.5859C301.214 25.2057 301.531 24.9115 301.906 24.7031C302.286 24.4948 302.732 24.3906 303.242 24.3906C303.779 24.3906 304.25 24.4922 304.656 24.6953C305.068 24.8984 305.411 25.1901 305.688 25.5703C305.969 25.9505 306.18 26.4036 306.32 26.9297C306.466 27.4557 306.539 28.0391 306.539 28.6797ZM304.281 28.8438V28.6797C304.281 28.3203 304.25 27.9896 304.188 27.6875C304.13 27.3802 304.036 27.112 303.906 26.8828C303.781 26.6536 303.615 26.4766 303.406 26.3516C303.203 26.2214 302.956 26.1562 302.664 26.1562C302.357 26.1562 302.094 26.2057 301.875 26.3047C301.661 26.4036 301.487 26.5469 301.352 26.7344C301.216 26.9219 301.115 27.1458 301.047 27.4062C300.979 27.6667 300.938 27.9609 300.922 28.2891V29.375C300.948 29.7604 301.021 30.1068 301.141 30.4141C301.26 30.7161 301.445 30.9557 301.695 31.1328C301.945 31.3099 302.273 31.3984 302.68 31.3984C302.977 31.3984 303.227 31.3333 303.43 31.2031C303.633 31.0677 303.797 30.8828 303.922 30.6484C304.052 30.4141 304.143 30.1432 304.195 29.8359C304.253 29.5286 304.281 29.1979 304.281 28.8438ZM310.188 26.1719V36.25H307.938V24.5469H310.023L310.188 26.1719ZM315.539 28.6797V28.8438C315.539 29.4583 315.466 30.0286 315.32 30.5547C315.18 31.0807 314.971 31.5391 314.695 31.9297C314.419 32.3151 314.076 32.6172 313.664 32.8359C313.258 33.0495 312.789 33.1562 312.258 33.1562C311.742 33.1562 311.294 33.0521 310.914 32.8438C310.534 32.6354 310.214 32.3438 309.953 31.9688C309.698 31.5885 309.492 31.1484 309.336 30.6484C309.18 30.1484 309.06 29.612 308.977 29.0391V28.6094C309.06 27.9948 309.18 27.4323 309.336 26.9219C309.492 26.4062 309.698 25.9609 309.953 25.5859C310.214 25.2057 310.531 24.9115 310.906 24.7031C311.286 24.4948 311.732 24.3906 312.242 24.3906C312.779 24.3906 313.25 24.4922 313.656 24.6953C314.068 24.8984 314.411 25.1901 314.688 25.5703C314.969 25.9505 315.18 26.4036 315.32 26.9297C315.466 27.4557 315.539 28.0391 315.539 28.6797ZM313.281 28.8438V28.6797C313.281 28.3203 313.25 27.9896 313.188 27.6875C313.13 27.3802 313.036 27.112 312.906 26.8828C312.781 26.6536 312.615 26.4766 312.406 26.3516C312.203 26.2214 311.956 26.1562 311.664 26.1562C311.357 26.1562 311.094 26.2057 310.875 26.3047C310.661 26.4036 310.487 26.5469 310.352 26.7344C310.216 26.9219 310.115 27.1458 310.047 27.4062C309.979 27.6667 309.938 27.9609 309.922 28.2891V29.375C309.948 29.7604 310.021 30.1068 310.141 30.4141C310.26 30.7161 310.445 30.9557 310.695 31.1328C310.945 31.3099 311.273 31.3984 311.68 31.3984C311.977 31.3984 312.227 31.3333 312.43 31.2031C312.633 31.0677 312.797 30.8828 312.922 30.6484C313.052 30.4141 313.143 30.1432 313.195 29.8359C313.253 29.5286 313.281 29.1979 313.281 28.8438ZM319.312 24.5469V33H317.055V24.5469H319.312ZM316.914 22.3438C316.914 22.0156 317.029 21.7448 317.258 21.5312C317.487 21.3177 317.794 21.2109 318.18 21.2109C318.56 21.2109 318.865 21.3177 319.094 21.5312C319.328 21.7448 319.445 22.0156 319.445 22.3438C319.445 22.6719 319.328 22.9427 319.094 23.1562C318.865 23.3698 318.56 23.4766 318.18 23.4766C317.794 23.4766 317.487 23.3698 317.258 23.1562C317.029 22.9427 316.914 22.6719 316.914 22.3438ZM323.375 26.3516V33H321.125V24.5469H323.234L323.375 26.3516ZM323.047 28.4766H322.438C322.438 27.8516 322.518 27.2891 322.68 26.7891C322.841 26.2839 323.068 25.8542 323.359 25.5C323.651 25.1406 323.997 24.8672 324.398 24.6797C324.805 24.487 325.258 24.3906 325.758 24.3906C326.154 24.3906 326.516 24.4479 326.844 24.5625C327.172 24.6771 327.453 24.8594 327.688 25.1094C327.927 25.3594 328.109 25.6901 328.234 26.1016C328.365 26.513 328.43 27.0156 328.43 27.6094V33H326.164V27.6016C326.164 27.2266 326.112 26.9349 326.008 26.7266C325.904 26.5182 325.75 26.3724 325.547 26.2891C325.349 26.2005 325.104 26.1562 324.812 26.1562C324.51 26.1562 324.247 26.2161 324.023 26.3359C323.805 26.4557 323.622 26.6224 323.477 26.8359C323.336 27.0443 323.229 27.2891 323.156 27.5703C323.083 27.8516 323.047 28.1536 323.047 28.4766ZM335.492 24.5469H337.531V32.7188C337.531 33.4896 337.359 34.1432 337.016 34.6797C336.677 35.2214 336.203 35.6302 335.594 35.9062C334.984 36.1875 334.276 36.3281 333.469 36.3281C333.115 36.3281 332.74 36.2812 332.344 36.1875C331.953 36.0938 331.578 35.9479 331.219 35.75C330.865 35.5521 330.568 35.3021 330.328 35L331.32 33.6719C331.581 33.974 331.883 34.2083 332.227 34.375C332.57 34.5469 332.951 34.6328 333.367 34.6328C333.773 34.6328 334.117 34.5573 334.398 34.4062C334.68 34.2604 334.896 34.0443 335.047 33.7578C335.198 33.4766 335.273 33.1354 335.273 32.7344V26.5L335.492 24.5469ZM329.805 28.875V28.7109C329.805 28.0651 329.883 27.4792 330.039 26.9531C330.201 26.4219 330.427 25.9661 330.719 25.5859C331.016 25.2057 331.375 24.9115 331.797 24.7031C332.219 24.4948 332.695 24.3906 333.227 24.3906C333.789 24.3906 334.26 24.4948 334.641 24.7031C335.021 24.9115 335.333 25.2083 335.578 25.5938C335.823 25.974 336.013 26.4245 336.148 26.9453C336.289 27.4609 336.398 28.026 336.477 28.6406V29C336.398 29.5885 336.281 30.1354 336.125 30.6406C335.969 31.1458 335.763 31.5885 335.508 31.9688C335.253 32.3438 334.935 32.6354 334.555 32.8438C334.18 33.0521 333.732 33.1562 333.211 33.1562C332.69 33.1562 332.219 33.0495 331.797 32.8359C331.38 32.6224 331.023 32.3229 330.727 31.9375C330.43 31.5521 330.201 31.099 330.039 30.5781C329.883 30.0573 329.805 29.4896 329.805 28.875ZM332.055 28.7109V28.875C332.055 29.224 332.089 29.5495 332.156 29.8516C332.224 30.1536 332.328 30.4219 332.469 30.6562C332.615 30.8854 332.794 31.0651 333.008 31.1953C333.227 31.3203 333.484 31.3828 333.781 31.3828C334.193 31.3828 334.529 31.2969 334.789 31.125C335.049 30.9479 335.245 30.7057 335.375 30.3984C335.505 30.0911 335.581 29.737 335.602 29.3359V28.3125C335.591 27.9844 335.547 27.6901 335.469 27.4297C335.391 27.1641 335.281 26.9375 335.141 26.75C335 26.5625 334.818 26.4167 334.594 26.3125C334.37 26.2083 334.104 26.1562 333.797 26.1562C333.5 26.1562 333.242 26.224 333.023 26.3594C332.81 26.4896 332.63 26.6693 332.484 26.8984C332.344 27.1276 332.237 27.3984 332.164 27.7109C332.091 28.0182 332.055 28.3516 332.055 28.7109ZM345.898 21.625V33H343.562V21.625H345.898ZM350.156 26.3516V33H347.906V24.5469H350.016L350.156 26.3516ZM349.828 28.4766H349.219C349.219 27.8516 349.299 27.2891 349.461 26.7891C349.622 26.2839 349.849 25.8542 350.141 25.5C350.432 25.1406 350.779 24.8672 351.18 24.6797C351.586 24.487 352.039 24.3906 352.539 24.3906C352.935 24.3906 353.297 24.4479 353.625 24.5625C353.953 24.6771 354.234 24.8594 354.469 25.1094C354.708 25.3594 354.891 25.6901 355.016 26.1016C355.146 26.513 355.211 27.0156 355.211 27.6094V33H352.945V27.6016C352.945 27.2266 352.893 26.9349 352.789 26.7266C352.685 26.5182 352.531 26.3724 352.328 26.2891C352.13 26.2005 351.885 26.1562 351.594 26.1562C351.292 26.1562 351.029 26.2161 350.805 26.3359C350.586 26.4557 350.404 26.6224 350.258 26.8359C350.117 27.0443 350.01 27.2891 349.938 27.5703C349.865 27.8516 349.828 28.1536 349.828 28.4766ZM359.789 33H357.523V23.7969C357.523 23.1562 357.648 22.6172 357.898 22.1797C358.154 21.737 358.51 21.4036 358.969 21.1797C359.432 20.9505 359.982 20.8359 360.617 20.8359C360.826 20.8359 361.026 20.8516 361.219 20.8828C361.411 20.9089 361.599 20.9427 361.781 20.9844L361.758 22.6797C361.659 22.6536 361.555 22.6354 361.445 22.625C361.336 22.6146 361.208 22.6094 361.062 22.6094C360.792 22.6094 360.56 22.6562 360.367 22.75C360.18 22.8385 360.036 22.9714 359.938 23.1484C359.839 23.3255 359.789 23.5417 359.789 23.7969V33ZM361.477 24.5469V26.1406H356.266V24.5469H361.477ZM362.297 28.8594V28.6953C362.297 28.0755 362.385 27.5052 362.562 26.9844C362.74 26.4583 362.997 26.0026 363.336 25.6172C363.674 25.2318 364.091 24.9323 364.586 24.7188C365.081 24.5 365.648 24.3906 366.289 24.3906C366.93 24.3906 367.5 24.5 368 24.7188C368.5 24.9323 368.919 25.2318 369.258 25.6172C369.602 26.0026 369.862 26.4583 370.039 26.9844C370.216 27.5052 370.305 28.0755 370.305 28.6953V28.8594C370.305 29.474 370.216 30.0443 370.039 30.5703C369.862 31.0911 369.602 31.5469 369.258 31.9375C368.919 32.3229 368.503 32.6224 368.008 32.8359C367.513 33.0495 366.945 33.1562 366.305 33.1562C365.664 33.1562 365.094 33.0495 364.594 32.8359C364.099 32.6224 363.68 32.3229 363.336 31.9375C362.997 31.5469 362.74 31.0911 362.562 30.5703C362.385 30.0443 362.297 29.474 362.297 28.8594ZM364.547 28.6953V28.8594C364.547 29.2135 364.578 29.5443 364.641 29.8516C364.703 30.1589 364.802 30.4297 364.938 30.6641C365.078 30.8932 365.26 31.0729 365.484 31.2031C365.708 31.3333 365.982 31.3984 366.305 31.3984C366.617 31.3984 366.885 31.3333 367.109 31.2031C367.333 31.0729 367.513 30.8932 367.648 30.6641C367.784 30.4297 367.883 30.1589 367.945 29.8516C368.013 29.5443 368.047 29.2135 368.047 28.8594V28.6953C368.047 28.3516 368.013 28.0286 367.945 27.7266C367.883 27.4193 367.781 27.1484 367.641 26.9141C367.505 26.6745 367.326 26.487 367.102 26.3516C366.878 26.2161 366.607 26.1484 366.289 26.1484C365.971 26.1484 365.701 26.2161 365.477 26.3516C365.258 26.487 365.078 26.6745 364.938 26.9141C364.802 27.1484 364.703 27.4193 364.641 27.7266C364.578 28.0286 364.547 28.3516 364.547 28.6953ZM373.938 26.3906V33H371.688V24.5469H373.805L373.938 26.3906ZM376.484 24.4922L376.445 26.5781C376.336 26.5625 376.203 26.5495 376.047 26.5391C375.896 26.5234 375.758 26.5156 375.633 26.5156C375.315 26.5156 375.039 26.5573 374.805 26.6406C374.576 26.7188 374.383 26.8359 374.227 26.9922C374.076 27.1484 373.961 27.3385 373.883 27.5625C373.81 27.7865 373.768 28.0417 373.758 28.3281L373.305 28.1875C373.305 27.6406 373.359 27.138 373.469 26.6797C373.578 26.2161 373.737 25.8125 373.945 25.4688C374.159 25.125 374.419 24.8594 374.727 24.6719C375.034 24.4844 375.385 24.3906 375.781 24.3906C375.906 24.3906 376.034 24.401 376.164 24.4219C376.294 24.4375 376.401 24.4609 376.484 24.4922ZM379.797 26.2969V33H377.539V24.5469H379.656L379.797 26.2969ZM379.484 28.4766H378.859C378.859 27.888 378.93 27.3464 379.07 26.8516C379.216 26.3516 379.427 25.9193 379.703 25.5547C379.984 25.1849 380.331 24.8984 380.742 24.6953C381.154 24.4922 381.63 24.3906 382.172 24.3906C382.547 24.3906 382.891 24.4479 383.203 24.5625C383.516 24.6719 383.784 24.8464 384.008 25.0859C384.237 25.3203 384.414 25.6276 384.539 26.0078C384.664 26.3828 384.727 26.8333 384.727 27.3594V33H382.477V27.6094C382.477 27.224 382.424 26.9271 382.32 26.7188C382.216 26.5104 382.068 26.3646 381.875 26.2812C381.688 26.1979 381.461 26.1562 381.195 26.1562C380.904 26.1562 380.648 26.2161 380.43 26.3359C380.216 26.4557 380.039 26.6224 379.898 26.8359C379.758 27.0443 379.654 27.2891 379.586 27.5703C379.518 27.8516 379.484 28.1536 379.484 28.4766ZM384.516 28.2188L383.711 28.3203C383.711 27.7682 383.779 27.2552 383.914 26.7812C384.055 26.3073 384.26 25.8906 384.531 25.5312C384.807 25.1719 385.148 24.8932 385.555 24.6953C385.961 24.4922 386.43 24.3906 386.961 24.3906C387.367 24.3906 387.737 24.4505 388.07 24.5703C388.404 24.6849 388.688 24.8698 388.922 25.125C389.161 25.375 389.344 25.7031 389.469 26.1094C389.599 26.5156 389.664 27.013 389.664 27.6016V33H387.406V27.6016C387.406 27.2109 387.354 26.9141 387.25 26.7109C387.151 26.5026 387.005 26.3594 386.812 26.2812C386.625 26.1979 386.401 26.1562 386.141 26.1562C385.87 26.1562 385.633 26.2109 385.43 26.3203C385.227 26.4245 385.057 26.5703 384.922 26.7578C384.786 26.9453 384.685 27.1641 384.617 27.4141C384.549 27.6589 384.516 27.9271 384.516 28.2188ZM395.969 31.0938V27.3281C395.969 27.0573 395.924 26.8255 395.836 26.6328C395.747 26.4349 395.609 26.2812 395.422 26.1719C395.24 26.0625 395.003 26.0078 394.711 26.0078C394.461 26.0078 394.245 26.0521 394.062 26.1406C393.88 26.224 393.74 26.3464 393.641 26.5078C393.542 26.6641 393.492 26.849 393.492 27.0625H391.242C391.242 26.7031 391.326 26.362 391.492 26.0391C391.659 25.7161 391.901 25.4323 392.219 25.1875C392.536 24.9375 392.914 24.7422 393.352 24.6016C393.794 24.4609 394.289 24.3906 394.836 24.3906C395.492 24.3906 396.076 24.5 396.586 24.7188C397.096 24.9375 397.497 25.2656 397.789 25.7031C398.086 26.1406 398.234 26.6875 398.234 27.3438V30.9609C398.234 31.4245 398.263 31.8047 398.32 32.1016C398.378 32.3932 398.461 32.6484 398.57 32.8672V33H396.297C396.188 32.7708 396.104 32.4844 396.047 32.1406C395.995 31.7917 395.969 31.4427 395.969 31.0938ZM396.266 27.8516L396.281 29.125H395.023C394.727 29.125 394.469 29.1589 394.25 29.2266C394.031 29.2943 393.852 29.3906 393.711 29.5156C393.57 29.6354 393.466 29.776 393.398 29.9375C393.336 30.099 393.305 30.276 393.305 30.4688C393.305 30.6615 393.349 30.8359 393.438 30.9922C393.526 31.1432 393.654 31.263 393.82 31.3516C393.987 31.4349 394.182 31.4766 394.406 31.4766C394.745 31.4766 395.039 31.4089 395.289 31.2734C395.539 31.138 395.732 30.9714 395.867 30.7734C396.008 30.5755 396.081 30.388 396.086 30.2109L396.68 31.1641C396.596 31.3776 396.482 31.599 396.336 31.8281C396.195 32.0573 396.016 32.2734 395.797 32.4766C395.578 32.6745 395.315 32.8385 395.008 32.9688C394.701 33.0938 394.336 33.1562 393.914 33.1562C393.378 33.1562 392.891 33.0495 392.453 32.8359C392.021 32.6172 391.677 32.3177 391.422 31.9375C391.172 31.5521 391.047 31.1146 391.047 30.625C391.047 30.1823 391.13 29.7891 391.297 29.4453C391.464 29.1016 391.708 28.8125 392.031 28.5781C392.359 28.3385 392.768 28.1589 393.258 28.0391C393.747 27.9141 394.315 27.8516 394.961 27.8516H396.266ZM404.109 24.5469V26.1406H399.188V24.5469H404.109ZM400.406 22.4609H402.656V30.4531C402.656 30.6979 402.688 30.8854 402.75 31.0156C402.818 31.1458 402.917 31.237 403.047 31.2891C403.177 31.3359 403.341 31.3594 403.539 31.3594C403.68 31.3594 403.805 31.3542 403.914 31.3438C404.029 31.3281 404.125 31.3125 404.203 31.2969L404.211 32.9531C404.018 33.0156 403.81 33.0651 403.586 33.1016C403.362 33.138 403.115 33.1562 402.844 33.1562C402.349 33.1562 401.917 33.0755 401.547 32.9141C401.182 32.7474 400.901 32.4818 400.703 32.1172C400.505 31.7526 400.406 31.2734 400.406 30.6797V22.4609ZM407.766 24.5469V33H405.508V24.5469H407.766ZM405.367 22.3438C405.367 22.0156 405.482 21.7448 405.711 21.5312C405.94 21.3177 406.247 21.2109 406.633 21.2109C407.013 21.2109 407.318 21.3177 407.547 21.5312C407.781 21.7448 407.898 22.0156 407.898 22.3438C407.898 22.6719 407.781 22.9427 407.547 23.1562C407.318 23.3698 407.013 23.4766 406.633 23.4766C406.247 23.4766 405.94 23.3698 405.711 23.1562C405.482 22.9427 405.367 22.6719 405.367 22.3438ZM409.266 28.8594V28.6953C409.266 28.0755 409.354 27.5052 409.531 26.9844C409.708 26.4583 409.966 26.0026 410.305 25.6172C410.643 25.2318 411.06 24.9323 411.555 24.7188C412.049 24.5 412.617 24.3906 413.258 24.3906C413.898 24.3906 414.469 24.5 414.969 24.7188C415.469 24.9323 415.888 25.2318 416.227 25.6172C416.57 26.0026 416.831 26.4583 417.008 26.9844C417.185 27.5052 417.273 28.0755 417.273 28.6953V28.8594C417.273 29.474 417.185 30.0443 417.008 30.5703C416.831 31.0911 416.57 31.5469 416.227 31.9375C415.888 32.3229 415.471 32.6224 414.977 32.8359C414.482 33.0495 413.914 33.1562 413.273 33.1562C412.633 33.1562 412.062 33.0495 411.562 32.8359C411.068 32.6224 410.648 32.3229 410.305 31.9375C409.966 31.5469 409.708 31.0911 409.531 30.5703C409.354 30.0443 409.266 29.474 409.266 28.8594ZM411.516 28.6953V28.8594C411.516 29.2135 411.547 29.5443 411.609 29.8516C411.672 30.1589 411.771 30.4297 411.906 30.6641C412.047 30.8932 412.229 31.0729 412.453 31.2031C412.677 31.3333 412.951 31.3984 413.273 31.3984C413.586 31.3984 413.854 31.3333 414.078 31.2031C414.302 31.0729 414.482 30.8932 414.617 30.6641C414.753 30.4297 414.852 30.1589 414.914 29.8516C414.982 29.5443 415.016 29.2135 415.016 28.8594V28.6953C415.016 28.3516 414.982 28.0286 414.914 27.7266C414.852 27.4193 414.75 27.1484 414.609 26.9141C414.474 26.6745 414.294 26.487 414.07 26.3516C413.846 26.2161 413.576 26.1484 413.258 26.1484C412.94 26.1484 412.669 26.2161 412.445 26.3516C412.227 26.487 412.047 26.6745 411.906 26.9141C411.771 27.1484 411.672 27.4193 411.609 27.7266C411.547 28.0286 411.516 28.3516 411.516 28.6953ZM420.859 26.3516V33H418.609V24.5469H420.719L420.859 26.3516ZM420.531 28.4766H419.922C419.922 27.8516 420.003 27.2891 420.164 26.7891C420.326 26.2839 420.552 25.8542 420.844 25.5C421.135 25.1406 421.482 24.8672 421.883 24.6797C422.289 24.487 422.742 24.3906 423.242 24.3906C423.638 24.3906 424 24.4479 424.328 24.5625C424.656 24.6771 424.938 24.8594 425.172 25.1094C425.411 25.3594 425.594 25.6901 425.719 26.1016C425.849 26.513 425.914 27.0156 425.914 27.6094V33H423.648V27.6016C423.648 27.2266 423.596 26.9349 423.492 26.7266C423.388 26.5182 423.234 26.3724 423.031 26.2891C422.833 26.2005 422.589 26.1562 422.297 26.1562C421.995 26.1562 421.732 26.2161 421.508 26.3359C421.289 26.4557 421.107 26.6224 420.961 26.8359C420.82 27.0443 420.714 27.2891 420.641 27.5703C420.568 27.8516 420.531 28.1536 420.531 28.4766Z" fill="#184A81"/>
</g>
</g>
<defs>
<filter id="filter0_i_304_3191" x="0" y="0" width="1104" height="56" filterUnits="userSpaceOnUse" color-interpolation-filters="sRGB">
<feFlood flood-opacity="0" result="BackgroundImageFix"/>
<feBlend mode="normal" in="SourceGraphic" in2="BackgroundImageFix" result="shape"/>
<feColorMatrix in="SourceAlpha" type="matrix" values="0 0 0 0 0 0 0 0 0 0 0 0 0 0 0 0 0 0 127 0" result="hardAlpha"/>
<feOffset dy="-1"/>
<feComposite in2="hardAlpha" operator="arithmetic" k2="-1" k3="1"/>
<feColorMatrix type="matrix" values="0 0 0 0 0 0 0 0 0 0 0 0 0 0 0 0 0 0 0.05 0"/>
<feBlend mode="normal" in2="shape" result="effect1_innerShadow_304_3191"/>
</filter>
<filter id="filter1_i_304_3191" x="259" y="0" width="184" height="56" filterUnits="userSpaceOnUse" color-interpolation-filters="sRGB">
<feFlood flood-opacity="0" result="BackgroundImageFix"/>
<feBlend mode="normal" in="SourceGraphic" in2="BackgroundImageFix" result="shape"/>
<feColorMatrix in="SourceAlpha" type="matrix" values="0 0 0 0 0 0 0 0 0 0 0 0 0 0 0 0 0 0 127 0" result="hardAlpha"/>
<feOffset dy="-1"/>
<feComposite in2="hardAlpha" operator="arithmetic" k2="-1" k3="1"/>
<feColorMatrix type="matrix" values="0 0 0 0 0 0 0 0 0 0.392157 0 0 0 0 0.823529 0 0 0 1 0"/>
<feBlend mode="normal" in2="shape" result="effect1_innerShadow_304_3191"/>
</filter>
</defs>
</svg>
