<svg width="1105" height="60" viewBox="0 0 1105 60" fill="none" xmlns="http://www.w3.org/2000/svg">
<path d="M1.51705 27V9.54545H13.0739V12.5881H5.20739V16.7472H12.3068V19.7898H5.20739V27H1.51705ZM20.4929 27.2557C19.1463 27.2557 17.9872 26.983 17.0156 26.4375C16.0497 25.8864 15.3054 25.108 14.7827 24.1023C14.2599 23.0909 13.9986 21.8949 13.9986 20.5142C13.9986 19.1676 14.2599 17.9858 14.7827 16.9688C15.3054 15.9517 16.0412 15.1591 16.9901 14.5909C17.9446 14.0227 19.0639 13.7386 20.348 13.7386C21.2116 13.7386 22.0156 13.8778 22.7599 14.1562C23.5099 14.429 24.1634 14.8409 24.7202 15.392C25.2827 15.9432 25.7202 16.6364 26.0327 17.4716C26.3452 18.3011 26.5014 19.2727 26.5014 20.3864V21.3835H15.4474V19.1335H23.0838C23.0838 18.6108 22.9702 18.1477 22.7429 17.7443C22.5156 17.3409 22.2003 17.0256 21.7969 16.7983C21.3991 16.5653 20.9361 16.4489 20.4077 16.4489C19.8565 16.4489 19.3679 16.5767 18.9418 16.8324C18.5213 17.0824 18.1918 17.4205 17.9531 17.8466C17.7145 18.267 17.5923 18.7358 17.5866 19.2528V21.392C17.5866 22.0398 17.706 22.5994 17.9446 23.071C18.1889 23.5426 18.5327 23.9062 18.9759 24.1619C19.419 24.4176 19.9446 24.5455 20.5526 24.5455C20.956 24.5455 21.3253 24.4886 21.6605 24.375C21.9957 24.2614 22.2827 24.0909 22.5213 23.8636C22.7599 23.6364 22.9418 23.358 23.0668 23.0284L26.4247 23.25C26.2543 24.0568 25.9048 24.7614 25.3764 25.3636C24.8537 25.9602 24.1776 26.4261 23.348 26.7614C22.5241 27.0909 21.5724 27.2557 20.4929 27.2557ZM32.6037 27.2472C31.7685 27.2472 31.0241 27.1023 30.3707 26.8125C29.7173 26.517 29.2003 26.0824 28.8196 25.5085C28.4446 24.929 28.2571 24.2074 28.2571 23.3438C28.2571 22.6165 28.3906 22.0057 28.6577 21.5114C28.9247 21.017 29.2884 20.6193 29.7486 20.3182C30.2088 20.017 30.7315 19.7898 31.3168 19.6364C31.9077 19.483 32.527 19.375 33.1747 19.3125C33.9361 19.233 34.5497 19.1591 35.0156 19.0909C35.4815 19.017 35.8196 18.9091 36.0298 18.767C36.2401 18.625 36.3452 18.4148 36.3452 18.1364V18.0852C36.3452 17.5455 36.1747 17.1278 35.8338 16.8324C35.4986 16.5369 35.0213 16.3892 34.402 16.3892C33.7486 16.3892 33.2287 16.5341 32.8423 16.8239C32.456 17.108 32.2003 17.4659 32.0753 17.8977L28.7173 17.625C28.8878 16.8295 29.223 16.142 29.723 15.5625C30.223 14.9773 30.8679 14.5284 31.6577 14.2159C32.4531 13.8977 33.3736 13.7386 34.419 13.7386C35.1463 13.7386 35.8423 13.8239 36.5071 13.9943C37.1776 14.1648 37.7713 14.429 38.2884 14.7869C38.8111 15.1449 39.223 15.6051 39.5241 16.1676C39.8253 16.7244 39.9759 17.392 39.9759 18.1705V27H36.5327V25.1847H36.4304C36.2202 25.5938 35.9389 25.9545 35.5866 26.267C35.2344 26.5739 34.8111 26.8153 34.3168 26.9915C33.8224 27.1619 33.2514 27.2472 32.6037 27.2472ZM33.6435 24.7415C34.1776 24.7415 34.6491 24.6364 35.0582 24.4261C35.4673 24.2102 35.7884 23.9205 36.0213 23.5568C36.2543 23.1932 36.3707 22.7812 36.3707 22.321V20.9318C36.2571 21.0057 36.1009 21.0739 35.902 21.1364C35.7088 21.1932 35.4901 21.2472 35.2457 21.2983C35.0014 21.3437 34.7571 21.3864 34.5128 21.4261C34.2685 21.4602 34.0469 21.4915 33.848 21.5199C33.4219 21.5824 33.0497 21.6818 32.7315 21.8182C32.4134 21.9545 32.1662 22.1392 31.9901 22.3722C31.8139 22.5994 31.7259 22.8835 31.7259 23.2244C31.7259 23.7188 31.9048 24.0966 32.2628 24.358C32.6264 24.6136 33.0866 24.7415 33.6435 24.7415ZM49.7557 13.9091V16.6364H41.8722V13.9091H49.7557ZM43.6619 10.7727H47.2926V22.9773C47.2926 23.3125 47.3438 23.5739 47.446 23.7614C47.5483 23.9432 47.6903 24.071 47.8722 24.1449C48.0597 24.2187 48.2756 24.2557 48.5199 24.2557C48.6903 24.2557 48.8608 24.2415 49.0312 24.2131C49.2017 24.179 49.3324 24.1534 49.4233 24.1364L49.9943 26.8381C49.8125 26.8949 49.5568 26.9602 49.2273 27.0341C48.8977 27.1136 48.4972 27.1619 48.0256 27.179C47.1506 27.2131 46.3835 27.0966 45.7244 26.8295C45.071 26.5625 44.5625 26.1477 44.1989 25.5852C43.8352 25.0227 43.6563 24.3125 43.6619 23.4545V10.7727ZM60.5156 21.4261V13.9091H64.1463V27H60.6605V24.6222H60.5241C60.2287 25.3892 59.7372 26.0057 59.0497 26.4716C58.3679 26.9375 57.5355 27.1705 56.5526 27.1705C55.6776 27.1705 54.9077 26.9716 54.2429 26.5739C53.5781 26.1761 53.0582 25.6108 52.6832 24.8778C52.3139 24.1449 52.1264 23.267 52.1207 22.2443V13.9091H55.7514V21.5966C55.7571 22.3693 55.9645 22.9801 56.3736 23.429C56.7827 23.8778 57.331 24.1023 58.0185 24.1023C58.456 24.1023 58.8651 24.0028 59.2457 23.804C59.6264 23.5994 59.9332 23.2983 60.1662 22.9006C60.4048 22.5028 60.5213 22.0114 60.5156 21.4261ZM67.0504 27V13.9091H70.5703V16.1932H70.7067C70.9453 15.3807 71.3459 14.767 71.9084 14.3523C72.4709 13.9318 73.1186 13.7216 73.8516 13.7216C74.0334 13.7216 74.2294 13.733 74.4396 13.7557C74.6499 13.7784 74.8345 13.8097 74.9936 13.8494V17.071C74.8232 17.0199 74.5874 16.9744 74.2862 16.9347C73.9851 16.8949 73.7095 16.875 73.4595 16.875C72.9254 16.875 72.4482 16.9915 72.0277 17.2244C71.6129 17.4517 71.2834 17.7699 71.0391 18.179C70.8004 18.5881 70.6811 19.0597 70.6811 19.5938V27H67.0504ZM82.2273 27.2557C80.8807 27.2557 79.7216 26.983 78.75 26.4375C77.7841 25.8864 77.0398 25.108 76.517 24.1023C75.9943 23.0909 75.733 21.8949 75.733 20.5142C75.733 19.1676 75.9943 17.9858 76.517 16.9688C77.0398 15.9517 77.7756 15.1591 78.7244 14.5909C79.679 14.0227 80.7983 13.7386 82.0824 13.7386C82.946 13.7386 83.75 13.8778 84.4943 14.1562C85.2443 14.429 85.8977 14.8409 86.4545 15.392C87.017 15.9432 87.4545 16.6364 87.767 17.4716C88.0795 18.3011 88.2358 19.2727 88.2358 20.3864V21.3835H77.1818V19.1335H84.8182C84.8182 18.6108 84.7045 18.1477 84.4773 17.7443C84.25 17.3409 83.9347 17.0256 83.5312 16.7983C83.1335 16.5653 82.6705 16.4489 82.142 16.4489C81.5909 16.4489 81.1023 16.5767 80.6761 16.8324C80.2557 17.0824 79.9261 17.4205 79.6875 17.8466C79.4489 18.267 79.3267 18.7358 79.321 19.2528V21.392C79.321 22.0398 79.4403 22.5994 79.679 23.071C79.9233 23.5426 80.267 23.9062 80.7102 24.1619C81.1534 24.4176 81.679 24.5455 82.2869 24.5455C82.6903 24.5455 83.0597 24.4886 83.3949 24.375C83.7301 24.2614 84.017 24.0909 84.2557 23.8636C84.4943 23.6364 84.6761 23.358 84.8011 23.0284L88.1591 23.25C87.9886 24.0568 87.6392 24.7614 87.1108 25.3636C86.5881 25.9602 85.9119 26.4261 85.0824 26.7614C84.2585 27.0909 83.3068 27.2557 82.2273 27.2557ZM95.429 27.2131C94.4347 27.2131 93.5341 26.9574 92.7273 26.446C91.9261 25.929 91.2898 25.1705 90.8182 24.1705C90.3523 23.1648 90.1193 21.9318 90.1193 20.4716C90.1193 18.9716 90.3608 17.7244 90.8438 16.7301C91.3267 15.7301 91.9688 14.983 92.7699 14.4886C93.5767 13.9886 94.4602 13.7386 95.4205 13.7386C96.1534 13.7386 96.7642 13.8636 97.2528 14.1136C97.7472 14.358 98.1449 14.6648 98.446 15.0341C98.7528 15.3977 98.9858 15.7557 99.1449 16.108H99.2557V9.54545H102.878V27H99.2983V24.9034H99.1449C98.9744 25.267 98.733 25.6278 98.4205 25.9858C98.1136 26.3381 97.7131 26.6307 97.2188 26.8636C96.7301 27.0966 96.1335 27.2131 95.429 27.2131ZM96.5795 24.3239C97.1648 24.3239 97.6591 24.1648 98.0625 23.8466C98.4716 23.5227 98.7841 23.071 99 22.4915C99.2216 21.9119 99.3324 21.233 99.3324 20.4545C99.3324 19.6761 99.2244 19 99.0085 18.4261C98.7926 17.8523 98.4801 17.4091 98.071 17.0966C97.6619 16.7841 97.1648 16.6278 96.5795 16.6278C95.983 16.6278 95.4801 16.7898 95.071 17.1136C94.6619 17.4375 94.3523 17.8864 94.142 18.4602C93.9318 19.0341 93.8267 19.6989 93.8267 20.4545C93.8267 21.2159 93.9318 21.8892 94.142 22.4744C94.358 23.054 94.6676 23.5085 95.071 23.8381C95.4801 24.1619 95.983 24.3239 96.5795 24.3239ZM111.486 27V9.54545H118.372C119.696 9.54545 120.824 9.7983 121.756 10.304C122.688 10.804 123.398 11.5 123.886 12.392C124.381 13.2784 124.628 14.3011 124.628 15.4602C124.628 16.6193 124.378 17.642 123.878 18.5284C123.378 19.4148 122.653 20.1051 121.705 20.5994C120.761 21.0937 119.619 21.3409 118.278 21.3409H113.889V18.3835H117.682C118.392 18.3835 118.977 18.2614 119.438 18.017C119.903 17.767 120.25 17.4233 120.477 16.9858C120.71 16.5426 120.827 16.0341 120.827 15.4602C120.827 14.8807 120.71 14.375 120.477 13.9432C120.25 13.5057 119.903 13.1676 119.438 12.929C118.972 12.6847 118.381 12.5625 117.665 12.5625H115.176V27H111.486ZM126.957 27V13.9091H130.477V16.1932H130.613C130.852 15.3807 131.252 14.767 131.815 14.3523C132.377 13.9318 133.025 13.7216 133.758 13.7216C133.94 13.7216 134.136 13.733 134.346 13.7557C134.556 13.7784 134.741 13.8097 134.9 13.8494V17.071C134.729 17.0199 134.494 16.9744 134.192 16.9347C133.891 16.8949 133.616 16.875 133.366 16.875C132.832 16.875 132.354 16.9915 131.934 17.2244C131.519 17.4517 131.19 17.7699 130.945 18.179C130.707 18.5881 130.587 19.0597 130.587 19.5938V27H126.957ZM142.082 27.2557C140.759 27.2557 139.614 26.9744 138.648 26.4119C137.688 25.8437 136.946 25.054 136.423 24.0426C135.901 23.0256 135.639 21.8466 135.639 20.5057C135.639 19.1534 135.901 17.9716 136.423 16.9602C136.946 15.9432 137.688 15.1534 138.648 14.5909C139.614 14.0227 140.759 13.7386 142.082 13.7386C143.406 13.7386 144.548 14.0227 145.509 14.5909C146.474 15.1534 147.219 15.9432 147.741 16.9602C148.264 17.9716 148.526 19.1534 148.526 20.5057C148.526 21.8466 148.264 23.0256 147.741 24.0426C147.219 25.054 146.474 25.8437 145.509 26.4119C144.548 26.9744 143.406 27.2557 142.082 27.2557ZM142.099 24.4432C142.702 24.4432 143.205 24.2727 143.608 23.9318C144.011 23.5852 144.315 23.1136 144.52 22.517C144.73 21.9205 144.835 21.2415 144.835 20.4801C144.835 19.7188 144.73 19.0398 144.52 18.4432C144.315 17.8466 144.011 17.375 143.608 17.0284C143.205 16.6818 142.702 16.5085 142.099 16.5085C141.491 16.5085 140.98 16.6818 140.565 17.0284C140.156 17.375 139.847 17.8466 139.636 18.4432C139.432 19.0398 139.33 19.7188 139.33 20.4801C139.33 21.2415 139.432 21.9205 139.636 22.517C139.847 23.1136 140.156 23.5852 140.565 23.9318C140.98 24.2727 141.491 24.4432 142.099 24.4432ZM155.71 27.2131C154.716 27.2131 153.815 26.9574 153.009 26.446C152.207 25.929 151.571 25.1705 151.099 24.1705C150.634 23.1648 150.401 21.9318 150.401 20.4716C150.401 18.9716 150.642 17.7244 151.125 16.7301C151.608 15.7301 152.25 14.983 153.051 14.4886C153.858 13.9886 154.741 13.7386 155.702 13.7386C156.435 13.7386 157.045 13.8636 157.534 14.1136C158.028 14.358 158.426 14.6648 158.727 15.0341C159.034 15.3977 159.267 15.7557 159.426 16.108H159.537V9.54545H163.159V27H159.58V24.9034H159.426C159.256 25.267 159.014 25.6278 158.702 25.9858C158.395 26.3381 157.994 26.6307 157.5 26.8636C157.011 27.0966 156.415 27.2131 155.71 27.2131ZM156.861 24.3239C157.446 24.3239 157.94 24.1648 158.344 23.8466C158.753 23.5227 159.065 23.071 159.281 22.4915C159.503 21.9119 159.614 21.233 159.614 20.4545C159.614 19.6761 159.506 19 159.29 18.4261C159.074 17.8523 158.761 17.4091 158.352 17.0966C157.943 16.7841 157.446 16.6278 156.861 16.6278C156.264 16.6278 155.761 16.7898 155.352 17.1136C154.943 17.4375 154.634 17.8864 154.423 18.4602C154.213 19.0341 154.108 19.6989 154.108 20.4545C154.108 21.2159 154.213 21.8892 154.423 22.4744C154.639 23.054 154.949 23.5085 155.352 23.8381C155.761 24.1619 156.264 24.3239 156.861 24.3239ZM174.539 21.4261V13.9091H178.17V27H174.684V24.6222H174.548C174.252 25.3892 173.761 26.0057 173.073 26.4716C172.391 26.9375 171.559 27.1705 170.576 27.1705C169.701 27.1705 168.931 26.9716 168.266 26.5739C167.602 26.1761 167.082 25.6108 166.707 24.8778C166.337 24.1449 166.15 23.267 166.144 22.2443V13.9091H169.775V21.5966C169.781 22.3693 169.988 22.9801 170.397 23.429C170.806 23.8778 171.354 24.1023 172.042 24.1023C172.479 24.1023 172.888 24.0028 173.269 23.804C173.65 23.5994 173.957 23.2983 174.19 22.9006C174.428 22.5028 174.545 22.0114 174.539 21.4261ZM186.989 27.2557C185.648 27.2557 184.494 26.9716 183.528 26.4034C182.568 25.8295 181.83 25.0341 181.312 24.017C180.801 23 180.545 21.8295 180.545 20.5057C180.545 19.1648 180.804 17.9886 181.321 16.9773C181.844 15.9602 182.585 15.1676 183.545 14.5994C184.506 14.0256 185.648 13.7386 186.972 13.7386C188.114 13.7386 189.114 13.946 189.972 14.3608C190.83 14.7756 191.509 15.358 192.009 16.108C192.509 16.858 192.784 17.7386 192.835 18.75H189.409C189.313 18.0966 189.057 17.571 188.642 17.1733C188.233 16.7699 187.696 16.5682 187.031 16.5682C186.469 16.5682 185.977 16.7216 185.557 17.0284C185.142 17.3295 184.818 17.7699 184.585 18.3494C184.352 18.929 184.236 19.6307 184.236 20.4545C184.236 21.2898 184.349 22 184.577 22.5852C184.81 23.1705 185.136 23.6165 185.557 23.9233C185.977 24.2301 186.469 24.3835 187.031 24.3835C187.446 24.3835 187.818 24.2983 188.148 24.1278C188.483 23.9574 188.759 23.7102 188.974 23.3864C189.196 23.0568 189.341 22.6619 189.409 22.2017H192.835C192.778 23.2017 192.506 24.0824 192.017 24.8438C191.534 25.5994 190.866 26.1903 190.014 26.6165C189.162 27.0426 188.153 27.2557 186.989 27.2557ZM202.123 13.9091V16.6364H194.239V13.9091H202.123ZM196.029 10.7727H199.66V22.9773C199.66 23.3125 199.711 23.5739 199.813 23.7614C199.915 23.9432 200.058 24.071 200.239 24.1449C200.427 24.2187 200.643 24.2557 200.887 24.2557C201.058 24.2557 201.228 24.2415 201.398 24.2131C201.569 24.179 201.7 24.1534 201.79 24.1364L202.362 26.8381C202.18 26.8949 201.924 26.9602 201.594 27.0341C201.265 27.1136 200.864 27.1619 200.393 27.179C199.518 27.2131 198.751 27.0966 198.092 26.8295C197.438 26.5625 196.93 26.1477 196.566 25.5852C196.202 25.0227 196.023 24.3125 196.029 23.4545V10.7727ZM215.216 17.642L211.892 17.8466C211.835 17.5625 211.713 17.3068 211.526 17.0795C211.338 16.8466 211.091 16.6619 210.784 16.5256C210.483 16.3835 210.122 16.3125 209.702 16.3125C209.139 16.3125 208.665 16.4318 208.278 16.6705C207.892 16.9034 207.699 17.2159 207.699 17.608C207.699 17.9205 207.824 18.1847 208.074 18.4006C208.324 18.6165 208.753 18.7898 209.361 18.9205L211.73 19.3977C213.003 19.6591 213.952 20.0795 214.577 20.6591C215.202 21.2386 215.514 22 215.514 22.9432C215.514 23.8011 215.261 24.554 214.756 25.2017C214.256 25.8494 213.568 26.3551 212.693 26.7188C211.824 27.0767 210.821 27.2557 209.685 27.2557C207.952 27.2557 206.571 26.8949 205.543 26.1733C204.52 25.446 203.92 24.4574 203.744 23.2074L207.315 23.0199C207.423 23.5483 207.685 23.9517 208.099 24.2301C208.514 24.5028 209.045 24.6392 209.693 24.6392C210.33 24.6392 210.841 24.517 211.227 24.2727C211.619 24.0227 211.818 23.7017 211.824 23.3097C211.818 22.9801 211.679 22.7102 211.406 22.5C211.134 22.2841 210.713 22.1193 210.145 22.0057L207.878 21.554C206.599 21.2983 205.648 20.8551 205.023 20.2244C204.403 19.5937 204.094 18.7898 204.094 17.8125C204.094 16.9716 204.321 16.2472 204.776 15.6392C205.236 15.0312 205.881 14.5625 206.71 14.233C207.545 13.9034 208.523 13.7386 209.642 13.7386C211.295 13.7386 212.597 14.0881 213.545 14.7869C214.5 15.4858 215.057 16.4375 215.216 17.642Z" fill="#03162C"/>
<path d="M1.40909 54V42.3636H5.34091C6.25379 42.3636 7 42.5284 7.57955 42.858C8.16288 43.1837 8.5947 43.625 8.875 44.1818C9.1553 44.7386 9.29545 45.3598 9.29545 46.0455C9.29545 46.7311 9.1553 47.3542 8.875 47.9148C8.59849 48.4754 8.17046 48.9223 7.59091 49.2557C7.01136 49.5852 6.26894 49.75 5.36364 49.75H2.54545V48.5H5.31818C5.94318 48.5 6.44508 48.392 6.82386 48.1761C7.20265 47.9602 7.47727 47.6686 7.64773 47.3011C7.82197 46.9299 7.90909 46.5114 7.90909 46.0455C7.90909 45.5795 7.82197 45.1629 7.64773 44.7955C7.47727 44.428 7.20076 44.1402 6.81818 43.9318C6.43561 43.7197 5.92803 43.6136 5.29545 43.6136H2.81818V54H1.40909ZM14.8352 54.1818C14.0473 54.1818 13.3561 53.9943 12.7614 53.6193C12.1705 53.2443 11.7083 52.7197 11.375 52.0455C11.0455 51.3712 10.8807 50.5833 10.8807 49.6818C10.8807 48.7727 11.0455 47.9792 11.375 47.3011C11.7083 46.6231 12.1705 46.0966 12.7614 45.7216C13.3561 45.3466 14.0473 45.1591 14.8352 45.1591C15.6231 45.1591 16.3125 45.3466 16.9034 45.7216C17.4981 46.0966 17.9602 46.6231 18.2898 47.3011C18.6231 47.9792 18.7898 48.7727 18.7898 49.6818C18.7898 50.5833 18.6231 51.3712 18.2898 52.0455C17.9602 52.7197 17.4981 53.2443 16.9034 53.6193C16.3125 53.9943 15.6231 54.1818 14.8352 54.1818ZM14.8352 52.9773C15.4337 52.9773 15.9261 52.8239 16.3125 52.517C16.6989 52.2102 16.9848 51.8068 17.1705 51.3068C17.3561 50.8068 17.4489 50.2652 17.4489 49.6818C17.4489 49.0985 17.3561 48.5549 17.1705 48.0511C16.9848 47.5473 16.6989 47.1402 16.3125 46.8295C15.9261 46.5189 15.4337 46.3636 14.8352 46.3636C14.2367 46.3636 13.7443 46.5189 13.358 46.8295C12.9716 47.1402 12.6856 47.5473 12.5 48.0511C12.3144 48.5549 12.2216 49.0985 12.2216 49.6818C12.2216 50.2652 12.3144 50.8068 12.5 51.3068C12.6856 51.8068 12.9716 52.2102 13.358 52.517C13.7443 52.8239 14.2367 52.9773 14.8352 52.9773ZM20.8366 57.2727V45.2727H22.1321V46.6591H22.2912C22.3897 46.5076 22.526 46.3144 22.7003 46.0795C22.8783 45.8409 23.1321 45.6288 23.4616 45.4432C23.795 45.2538 24.2457 45.1591 24.8139 45.1591C25.5488 45.1591 26.1965 45.3428 26.7571 45.7102C27.3177 46.0777 27.7552 46.5985 28.0696 47.2727C28.384 47.947 28.5412 48.7424 28.5412 49.6591C28.5412 50.5833 28.384 51.3845 28.0696 52.0625C27.7552 52.7367 27.3196 53.2595 26.7628 53.6307C26.206 53.9981 25.5639 54.1818 24.8366 54.1818C24.276 54.1818 23.8272 54.089 23.4901 53.9034C23.1529 53.714 22.8935 53.5 22.7116 53.2614C22.5298 53.0189 22.3897 52.8182 22.2912 52.6591H22.1776V57.2727H20.8366ZM22.1548 49.6364C22.1548 50.2955 22.2514 50.8769 22.4446 51.3807C22.6378 51.8807 22.92 52.2727 23.2912 52.5568C23.6624 52.8371 24.117 52.9773 24.6548 52.9773C25.2154 52.9773 25.6832 52.8295 26.0582 52.5341C26.437 52.2348 26.7211 51.8333 26.9105 51.3295C27.1037 50.822 27.2003 50.2576 27.2003 49.6364C27.2003 49.0227 27.1056 48.4697 26.9162 47.9773C26.7306 47.4811 26.4484 47.089 26.0696 46.8011C25.6946 46.5095 25.223 46.3636 24.6548 46.3636C24.1094 46.3636 23.651 46.5019 23.2798 46.7784C22.9086 47.0511 22.6283 47.4337 22.4389 47.9261C22.2495 48.4148 22.1548 48.9848 22.1548 49.6364ZM36.0866 50.4318V45.2727H37.4276V54H36.0866V52.5227H35.9957C35.7912 52.9659 35.473 53.3428 35.0412 53.6534C34.6094 53.9602 34.0639 54.1136 33.4048 54.1136C32.8594 54.1136 32.3745 53.9943 31.9503 53.7557C31.526 53.5133 31.1927 53.1496 30.9503 52.6648C30.7079 52.1761 30.5866 51.5606 30.5866 50.8182V45.2727H31.9276V50.7273C31.9276 51.3636 32.1056 51.8712 32.4616 52.25C32.8215 52.6288 33.2798 52.8182 33.8366 52.8182C34.17 52.8182 34.509 52.733 34.8537 52.5625C35.2022 52.392 35.4938 52.1307 35.7287 51.7784C35.9673 51.4261 36.0866 50.9773 36.0866 50.4318ZM41.2244 42.3636V54H39.8835V42.3636H41.2244ZM46.2486 54.2045C45.6955 54.2045 45.1937 54.1004 44.7429 53.892C44.2921 53.6799 43.9342 53.375 43.669 52.9773C43.4039 52.5758 43.2713 52.0909 43.2713 51.5227C43.2713 51.0227 43.3698 50.6174 43.5668 50.3068C43.7637 49.9924 44.027 49.7462 44.3565 49.5682C44.6861 49.3902 45.0497 49.2576 45.4474 49.1705C45.849 49.0795 46.2524 49.0076 46.6577 48.9545C47.188 48.8864 47.6179 48.8352 47.9474 48.8011C48.2808 48.7633 48.5232 48.7008 48.6747 48.6136C48.83 48.5265 48.9077 48.375 48.9077 48.1591V48.1136C48.9077 47.553 48.7543 47.1174 48.4474 46.8068C48.1444 46.4962 47.6842 46.3409 47.0668 46.3409C46.4266 46.3409 45.9247 46.4811 45.5611 46.7614C45.1974 47.0417 44.9418 47.3409 44.794 47.6591L43.5213 47.2045C43.7486 46.6742 44.0516 46.2614 44.4304 45.9659C44.813 45.6667 45.2296 45.4583 45.6804 45.3409C46.1349 45.2197 46.5819 45.1591 47.0213 45.1591C47.3016 45.1591 47.6236 45.1932 47.9872 45.2614C48.3546 45.3258 48.7088 45.4602 49.0497 45.6648C49.3944 45.8693 49.6804 46.178 49.9077 46.5909C50.1349 47.0038 50.2486 47.5568 50.2486 48.25V54H48.9077V52.8182H48.8395C48.7486 53.0076 48.5971 53.2102 48.3849 53.4261C48.1728 53.642 47.8906 53.8258 47.5384 53.9773C47.1861 54.1288 46.7562 54.2045 46.2486 54.2045ZM46.4531 53C46.9834 53 47.4304 52.8958 47.794 52.6875C48.1615 52.4792 48.438 52.2102 48.6236 51.8807C48.813 51.5511 48.9077 51.2045 48.9077 50.8409V49.6136C48.8509 49.6818 48.7259 49.7443 48.5327 49.8011C48.3433 49.8542 48.1236 49.9015 47.8736 49.9432C47.6274 49.9811 47.3868 50.0152 47.152 50.0455C46.9209 50.072 46.7334 50.0947 46.5895 50.1136C46.241 50.1591 45.9152 50.233 45.6122 50.3352C45.313 50.4337 45.0705 50.5833 44.8849 50.7841C44.7031 50.9811 44.6122 51.25 44.6122 51.5909C44.6122 52.0568 44.7846 52.4091 45.1293 52.6477C45.4777 52.8826 45.919 53 46.4531 53ZM52.696 54V45.2727H53.9915V46.5909H54.0824C54.2415 46.1591 54.5294 45.8087 54.946 45.5398C55.3627 45.2708 55.8324 45.1364 56.3551 45.1364C56.4536 45.1364 56.5767 45.1383 56.7244 45.142C56.8722 45.1458 56.9839 45.1515 57.0597 45.1591V46.5227C57.0142 46.5114 56.91 46.4943 56.7472 46.4716C56.5881 46.4451 56.4195 46.4318 56.2415 46.4318C55.8172 46.4318 55.4384 46.5208 55.1051 46.6989C54.7756 46.8731 54.5142 47.1155 54.321 47.4261C54.1316 47.733 54.0369 48.0833 54.0369 48.4773V54H52.696ZM63.1491 57.2727V45.2727H64.4446V46.6591H64.6037C64.7022 46.5076 64.8385 46.3144 65.0128 46.0795C65.1908 45.8409 65.4446 45.6288 65.7741 45.4432C66.1075 45.2538 66.5582 45.1591 67.1264 45.1591C67.8613 45.1591 68.509 45.3428 69.0696 45.7102C69.6302 46.0777 70.0677 46.5985 70.3821 47.2727C70.6965 47.947 70.8537 48.7424 70.8537 49.6591C70.8537 50.5833 70.6965 51.3845 70.3821 52.0625C70.0677 52.7367 69.6321 53.2595 69.0753 53.6307C68.5185 53.9981 67.8764 54.1818 67.1491 54.1818C66.5885 54.1818 66.1397 54.089 65.8026 53.9034C65.4654 53.714 65.206 53.5 65.0241 53.2614C64.8423 53.0189 64.7022 52.8182 64.6037 52.6591H64.4901V57.2727H63.1491ZM64.4673 49.6364C64.4673 50.2955 64.5639 50.8769 64.7571 51.3807C64.9503 51.8807 65.2325 52.2727 65.6037 52.5568C65.9749 52.8371 66.4295 52.9773 66.9673 52.9773C67.5279 52.9773 67.9957 52.8295 68.3707 52.5341C68.7495 52.2348 69.0336 51.8333 69.223 51.3295C69.4162 50.822 69.5128 50.2576 69.5128 49.6364C69.5128 49.0227 69.4181 48.4697 69.2287 47.9773C69.0431 47.4811 68.7609 47.089 68.3821 46.8011C68.0071 46.5095 67.5355 46.3636 66.9673 46.3636C66.4219 46.3636 65.9635 46.5019 65.5923 46.7784C65.2211 47.0511 64.9408 47.4337 64.7514 47.9261C64.562 48.4148 64.4673 48.9848 64.4673 49.6364ZM72.8991 54V45.2727H74.1946V46.5909H74.2855C74.4446 46.1591 74.7325 45.8087 75.1491 45.5398C75.5658 45.2708 76.0355 45.1364 76.5582 45.1364C76.6567 45.1364 76.7798 45.1383 76.9276 45.142C77.0753 45.1458 77.187 45.1515 77.2628 45.1591V46.5227C77.2173 46.5114 77.1132 46.4943 76.9503 46.4716C76.7912 46.4451 76.6226 46.4318 76.4446 46.4318C76.0204 46.4318 75.6416 46.5208 75.3082 46.6989C74.9787 46.8731 74.7173 47.1155 74.5241 47.4261C74.3348 47.733 74.2401 48.0833 74.2401 48.4773V54H72.8991ZM82.1321 54.1818C81.3442 54.1818 80.6529 53.9943 80.0582 53.6193C79.4673 53.2443 79.0052 52.7197 78.6719 52.0455C78.3423 51.3712 78.1776 50.5833 78.1776 49.6818C78.1776 48.7727 78.3423 47.9792 78.6719 47.3011C79.0052 46.6231 79.4673 46.0966 80.0582 45.7216C80.6529 45.3466 81.3442 45.1591 82.1321 45.1591C82.92 45.1591 83.6094 45.3466 84.2003 45.7216C84.795 46.0966 85.2571 46.6231 85.5866 47.3011C85.92 47.9792 86.0866 48.7727 86.0866 49.6818C86.0866 50.5833 85.92 51.3712 85.5866 52.0455C85.2571 52.7197 84.795 53.2443 84.2003 53.6193C83.6094 53.9943 82.92 54.1818 82.1321 54.1818ZM82.1321 52.9773C82.7306 52.9773 83.223 52.8239 83.6094 52.517C83.9957 52.2102 84.2817 51.8068 84.4673 51.3068C84.6529 50.8068 84.7457 50.2652 84.7457 49.6818C84.7457 49.0985 84.6529 48.5549 84.4673 48.0511C84.2817 47.5473 83.9957 47.1402 83.6094 46.8295C83.223 46.5189 82.7306 46.3636 82.1321 46.3636C81.5336 46.3636 81.0412 46.5189 80.6548 46.8295C80.2685 47.1402 79.9825 47.5473 79.7969 48.0511C79.6113 48.5549 79.5185 49.0985 79.5185 49.6818C79.5185 50.2652 79.6113 50.8068 79.7969 51.3068C79.9825 51.8068 80.2685 52.2102 80.6548 52.517C81.0412 52.8239 81.5336 52.9773 82.1321 52.9773ZM91.429 54.1818C90.7017 54.1818 90.0597 53.9981 89.5028 53.6307C88.946 53.2595 88.5104 52.7367 88.196 52.0625C87.8816 51.3845 87.7244 50.5833 87.7244 49.6591C87.7244 48.7424 87.8816 47.947 88.196 47.2727C88.5104 46.5985 88.9479 46.0777 89.5085 45.7102C90.0691 45.3428 90.7169 45.1591 91.4517 45.1591C92.0199 45.1591 92.4688 45.2538 92.7983 45.4432C93.1316 45.6288 93.3854 45.8409 93.5597 46.0795C93.7377 46.3144 93.8759 46.5076 93.9744 46.6591H94.0881V42.3636H95.429V54H94.1335V52.6591H93.9744C93.8759 52.8182 93.7358 53.0189 93.554 53.2614C93.3722 53.5 93.1127 53.714 92.7756 53.9034C92.4384 54.089 91.9896 54.1818 91.429 54.1818ZM91.6108 52.9773C92.1487 52.9773 92.6032 52.8371 92.9744 52.5568C93.3456 52.2727 93.6278 51.8807 93.821 51.3807C94.0142 50.8769 94.1108 50.2955 94.1108 49.6364C94.1108 48.9848 94.0161 48.4148 93.8267 47.9261C93.6373 47.4337 93.357 47.0511 92.9858 46.7784C92.6146 46.5019 92.1563 46.3636 91.6108 46.3636C91.0426 46.3636 90.5691 46.5095 90.1903 46.8011C89.8153 47.089 89.5331 47.4811 89.3438 47.9773C89.1581 48.4697 89.0653 49.0227 89.0653 49.6364C89.0653 50.2576 89.16 50.822 89.3494 51.3295C89.5426 51.8333 89.8267 52.2348 90.2017 52.5341C90.5805 52.8295 91.0502 52.9773 91.6108 52.9773ZM103.571 50.4318V45.2727H104.912V54H103.571V52.5227H103.48C103.276 52.9659 102.957 53.3428 102.526 53.6534C102.094 53.9602 101.548 54.1136 100.889 54.1136C100.344 54.1136 99.8589 53.9943 99.4347 53.7557C99.0104 53.5133 98.6771 53.1496 98.4347 52.6648C98.1922 52.1761 98.071 51.5606 98.071 50.8182V45.2727H99.4119V50.7273C99.4119 51.3636 99.59 51.8712 99.946 52.25C100.306 52.6288 100.764 52.8182 101.321 52.8182C101.654 52.8182 101.993 52.733 102.338 52.5625C102.687 52.392 102.978 52.1307 103.213 51.7784C103.452 51.4261 103.571 50.9773 103.571 50.4318ZM110.913 54.1818C110.095 54.1818 109.391 53.9886 108.8 53.6023C108.209 53.2159 107.754 52.6837 107.436 52.0057C107.118 51.3277 106.959 50.553 106.959 49.6818C106.959 48.7955 107.122 48.0133 107.447 47.3352C107.777 46.6534 108.235 46.1212 108.822 45.7386C109.413 45.3523 110.103 45.1591 110.891 45.1591C111.504 45.1591 112.057 45.2727 112.55 45.5C113.042 45.7273 113.446 46.0455 113.76 46.4545C114.074 46.8636 114.269 47.3409 114.345 47.8864H113.004C112.902 47.4886 112.675 47.1364 112.322 46.8295C111.974 46.5189 111.504 46.3636 110.913 46.3636C110.391 46.3636 109.932 46.5 109.538 46.7727C109.148 47.0417 108.843 47.4223 108.624 47.9148C108.408 48.4034 108.3 48.9773 108.3 49.6364C108.3 50.3106 108.406 50.8977 108.618 51.3977C108.834 51.8977 109.137 52.286 109.527 52.5625C109.921 52.839 110.383 52.9773 110.913 52.9773C111.262 52.9773 111.578 52.9167 111.862 52.7955C112.146 52.6742 112.387 52.5 112.584 52.2727C112.781 52.0455 112.921 51.7727 113.004 51.4545H114.345C114.269 51.9697 114.082 52.4337 113.783 52.8466C113.487 53.2557 113.095 53.5814 112.607 53.8239C112.122 54.0625 111.557 54.1818 110.913 54.1818ZM120.101 45.2727V46.4091H115.578V45.2727H120.101ZM116.896 43.1818H118.237V51.5C118.237 51.8788 118.292 52.1629 118.402 52.3523C118.516 52.5379 118.66 52.6629 118.834 52.7273C119.012 52.7879 119.199 52.8182 119.396 52.8182C119.544 52.8182 119.665 52.8106 119.76 52.7955C119.855 52.7765 119.93 52.7614 119.987 52.75L120.26 53.9545C120.169 53.9886 120.042 54.0227 119.879 54.0568C119.716 54.0947 119.51 54.1136 119.26 54.1136C118.881 54.1136 118.51 54.0322 118.146 53.8693C117.786 53.7064 117.487 53.4583 117.249 53.125C117.014 52.7917 116.896 52.3712 116.896 51.8636V43.1818ZM128.143 47.2273L126.939 47.5682C126.863 47.3674 126.751 47.1723 126.604 46.983C126.46 46.7898 126.263 46.6307 126.013 46.5057C125.763 46.3807 125.443 46.3182 125.053 46.3182C124.518 46.3182 124.073 46.4413 123.717 46.6875C123.365 46.9299 123.189 47.2386 123.189 47.6136C123.189 47.947 123.31 48.2102 123.553 48.4034C123.795 48.5966 124.174 48.7576 124.689 48.8864L125.984 49.2045C126.765 49.3939 127.346 49.6837 127.729 50.0739C128.111 50.4602 128.303 50.9583 128.303 51.5682C128.303 52.0682 128.159 52.5152 127.871 52.9091C127.587 53.303 127.189 53.6136 126.678 53.8409C126.166 54.0682 125.571 54.1818 124.893 54.1818C124.003 54.1818 123.267 53.9886 122.683 53.6023C122.1 53.2159 121.731 52.6515 121.575 51.9091L122.848 51.5909C122.969 52.0606 123.198 52.4129 123.536 52.6477C123.876 52.8826 124.321 53 124.871 53C125.496 53 125.992 52.8674 126.359 52.6023C126.731 52.3333 126.916 52.0114 126.916 51.6364C126.916 51.3333 126.81 51.0795 126.598 50.875C126.386 50.6667 126.06 50.5114 125.621 50.4091L124.166 50.0682C123.367 49.8788 122.78 49.5852 122.405 49.1875C122.034 48.786 121.848 48.2841 121.848 47.6818C121.848 47.1894 121.986 46.7538 122.263 46.375C122.543 45.9962 122.924 45.6989 123.405 45.483C123.89 45.267 124.439 45.1591 125.053 45.1591C125.916 45.1591 126.594 45.3485 127.087 45.7273C127.583 46.1061 127.935 46.6061 128.143 47.2273ZM134.821 54V45.2727H136.116V46.5909H136.207C136.366 46.1591 136.654 45.8087 137.071 45.5398C137.488 45.2708 137.957 45.1364 138.48 45.1364C138.579 45.1364 138.702 45.1383 138.849 45.142C138.997 45.1458 139.109 45.1515 139.185 45.1591V46.5227C139.139 46.5114 139.035 46.4943 138.872 46.4716C138.713 46.4451 138.545 46.4318 138.366 46.4318C137.942 46.4318 137.563 46.5208 137.23 46.6989C136.901 46.8731 136.639 47.1155 136.446 47.4261C136.257 47.733 136.162 48.0833 136.162 48.4773V54H134.821ZM140.774 54V45.2727H142.115V54H140.774ZM141.456 43.8182C141.195 43.8182 140.969 43.7292 140.78 43.5511C140.594 43.3731 140.501 43.1591 140.501 42.9091C140.501 42.6591 140.594 42.4451 140.78 42.267C140.969 42.089 141.195 42 141.456 42C141.717 42 141.941 42.089 142.126 42.267C142.316 42.4451 142.411 42.6591 142.411 42.9091C142.411 43.1591 142.316 43.3731 142.126 43.5511C141.941 43.7292 141.717 43.8182 141.456 43.8182ZM148.094 57.4545C147.446 57.4545 146.889 57.3712 146.423 57.2045C145.957 57.0417 145.569 56.8258 145.259 56.5568C144.952 56.2917 144.707 56.0076 144.526 55.7045L145.594 54.9545C145.715 55.1136 145.868 55.2955 146.054 55.5C146.24 55.7083 146.493 55.8883 146.815 56.0398C147.141 56.1951 147.567 56.2727 148.094 56.2727C148.798 56.2727 149.38 56.1023 149.838 55.7614C150.296 55.4205 150.526 54.8864 150.526 54.1591V52.3864H150.412C150.313 52.5455 150.173 52.7424 149.991 52.9773C149.813 53.2083 149.556 53.4148 149.219 53.5966C148.885 53.7746 148.435 53.8636 147.866 53.8636C147.162 53.8636 146.529 53.697 145.969 53.3636C145.412 53.0303 144.971 52.5455 144.645 51.9091C144.323 51.2727 144.162 50.5 144.162 49.5909C144.162 48.697 144.319 47.9186 144.634 47.2557C144.948 46.589 145.385 46.0739 145.946 45.7102C146.507 45.3428 147.154 45.1591 147.889 45.1591C148.457 45.1591 148.908 45.2538 149.241 45.4432C149.579 45.6288 149.836 45.8409 150.014 46.0795C150.196 46.3144 150.336 46.5076 150.435 46.6591H150.571V45.2727H151.866V54.25C151.866 55 151.696 55.6098 151.355 56.0795C151.018 56.553 150.563 56.8996 149.991 57.1193C149.423 57.3428 148.791 57.4545 148.094 57.4545ZM148.048 52.6591C148.586 52.6591 149.041 52.536 149.412 52.2898C149.783 52.0436 150.065 51.6894 150.259 51.2273C150.452 50.7652 150.548 50.2121 150.548 49.5682C150.548 48.9394 150.454 48.3845 150.264 47.9034C150.075 47.4223 149.795 47.0455 149.423 46.7727C149.052 46.5 148.594 46.3636 148.048 46.3636C147.48 46.3636 147.007 46.5076 146.628 46.7955C146.253 47.0833 145.971 47.4697 145.781 47.9545C145.596 48.4394 145.503 48.9773 145.503 49.5682C145.503 50.1742 145.598 50.7102 145.787 51.1761C145.98 51.6383 146.264 52.0019 146.639 52.267C147.018 52.5284 147.488 52.6591 148.048 52.6591ZM155.662 48.75V54H154.321V42.3636H155.662V46.6364H155.776C155.98 46.1856 156.287 45.8277 156.696 45.5625C157.109 45.2936 157.658 45.1591 158.344 45.1591C158.938 45.1591 159.459 45.2784 159.906 45.517C160.353 45.7519 160.7 46.1136 160.946 46.6023C161.196 47.0871 161.321 47.7045 161.321 48.4545V54H159.98V48.5455C159.98 47.8523 159.8 47.3163 159.44 46.9375C159.084 46.5549 158.59 46.3636 157.957 46.3636C157.518 46.3636 157.124 46.4564 156.776 46.642C156.431 46.8277 156.158 47.0985 155.957 47.4545C155.76 47.8106 155.662 48.2424 155.662 48.75ZM167.57 45.2727V46.4091H163.047V45.2727H167.57ZM164.365 43.1818H165.706V51.5C165.706 51.8788 165.761 52.1629 165.871 52.3523C165.984 52.5379 166.128 52.6629 166.303 52.7273C166.481 52.7879 166.668 52.8182 166.865 52.8182C167.013 52.8182 167.134 52.8106 167.229 52.7955C167.323 52.7765 167.399 52.7614 167.456 52.75L167.729 53.9545C167.638 53.9886 167.511 54.0227 167.348 54.0568C167.185 54.0947 166.979 54.1136 166.729 54.1136C166.35 54.1136 165.979 54.0322 165.615 53.8693C165.255 53.7064 164.956 53.4583 164.717 53.125C164.482 52.7917 164.365 52.3712 164.365 51.8636V43.1818ZM175.428 48.75V54H174.087V45.2727H175.382V46.6364H175.496C175.7 46.1932 176.011 45.8371 176.428 45.5682C176.844 45.2955 177.382 45.1591 178.041 45.1591C178.632 45.1591 179.149 45.2803 179.592 45.5227C180.036 45.7614 180.38 46.125 180.626 46.6136C180.873 47.0985 180.996 47.7121 180.996 48.4545V54H179.655V48.5455C179.655 47.8598 179.477 47.3258 179.121 46.9432C178.765 46.5568 178.276 46.3636 177.655 46.3636C177.227 46.3636 176.844 46.4564 176.507 46.642C176.174 46.8277 175.911 47.0985 175.717 47.4545C175.524 47.8106 175.428 48.2424 175.428 48.75ZM186.991 54.1818C186.204 54.1818 185.512 53.9943 184.918 53.6193C184.327 53.2443 183.865 52.7197 183.531 52.0455C183.202 51.3712 183.037 50.5833 183.037 49.6818C183.037 48.7727 183.202 47.9792 183.531 47.3011C183.865 46.6231 184.327 46.0966 184.918 45.7216C185.512 45.3466 186.204 45.1591 186.991 45.1591C187.779 45.1591 188.469 45.3466 189.06 45.7216C189.654 46.0966 190.116 46.6231 190.446 47.3011C190.779 47.9792 190.946 48.7727 190.946 49.6818C190.946 50.5833 190.779 51.3712 190.446 52.0455C190.116 52.7197 189.654 53.2443 189.06 53.6193C188.469 53.9943 187.779 54.1818 186.991 54.1818ZM186.991 52.9773C187.59 52.9773 188.082 52.8239 188.469 52.517C188.855 52.2102 189.141 51.8068 189.327 51.3068C189.512 50.8068 189.605 50.2652 189.605 49.6818C189.605 49.0985 189.512 48.5549 189.327 48.0511C189.141 47.5473 188.855 47.1402 188.469 46.8295C188.082 46.5189 187.59 46.3636 186.991 46.3636C186.393 46.3636 185.901 46.5189 185.514 46.8295C185.128 47.1402 184.842 47.5473 184.656 48.0511C184.471 48.5549 184.378 49.0985 184.378 49.6818C184.378 50.2652 184.471 50.8068 184.656 51.3068C184.842 51.8068 185.128 52.2102 185.514 52.517C185.901 52.8239 186.393 52.9773 186.991 52.9773ZM194.673 54L192.014 45.2727H193.423L195.31 51.9545H195.401L197.264 45.2727H198.696L200.537 51.9318H200.628L202.514 45.2727H203.923L201.264 54H199.946L198.037 47.2955H197.901L195.991 54H194.673Z" fill="#818B95"/>
</svg>
